<?xml version="1.0" encoding="UTF-8" standalone="no"?>
<!-- Created with Inkscape (http://www.inkscape.org/) -->

<svg
   width="1920"
   height="1080"
   viewBox="0 0 507.99999 285.75"
   version="1.1"
   id="svg5"
   xml:space="preserve"
   inkscape:version="1.2 (dc2aedaf03, 2022-05-15)"
   sodipodi:docname="info_bar_background.svg"
   xmlns:inkscape="http://www.inkscape.org/namespaces/inkscape"
   xmlns:sodipodi="http://sodipodi.sourceforge.net/DTD/sodipodi-0.dtd"
   xmlns:xlink="http://www.w3.org/1999/xlink"
   xmlns="http://www.w3.org/2000/svg"
   xmlns:svg="http://www.w3.org/2000/svg"><sodipodi:namedview
     id="namedview7"
     pagecolor="#505050"
     bordercolor="#eeeeee"
     borderopacity="1"
     inkscape:showpageshadow="0"
     inkscape:pageopacity="0"
     inkscape:pagecheckerboard="0"
     inkscape:deskcolor="#505050"
     inkscape:document-units="px"
     showgrid="false"
     showguides="false"
     inkscape:zoom="11.313709"
     inkscape:cx="1033.7901"
     inkscape:cy="999.58378"
     inkscape:current-layer="g10837"><sodipodi:guide
       position="288.08192,16.782285"
       orientation="1,0"
       id="guide6532"
       inkscape:locked="false" /><sodipodi:guide
       position="256.35527,16.440087"
       orientation="1,0"
       id="guide6534"
       inkscape:locked="false" /><sodipodi:guide
       position="224.53084,16.83117"
       orientation="1,0"
       id="guide6536"
       inkscape:locked="false" /><sodipodi:guide
       position="192.80419,18.639932"
       orientation="1,0"
       id="guide6538"
       inkscape:locked="false" /><sodipodi:guide
       position="161.07754,16.635629"
       orientation="1,0"
       id="guide6540"
       inkscape:locked="false" /><sodipodi:guide
       position="166.22828,8.2975044"
       orientation="0,-1"
       id="guide6672"
       inkscape:locked="false" /><sodipodi:guide
       position="186.66772,28.643397"
       orientation="0,-1"
       id="guide6674"
       inkscape:locked="false" /><sodipodi:guide
       position="296.41276,13.477521"
       orientation="0,-1"
       id="guide9171"
       inkscape:locked="false" /><sodipodi:guide
       position="296.35722,16.435861"
       orientation="0,-1"
       id="guide9173"
       inkscape:locked="false" /></sodipodi:namedview><defs
     id="defs2"><linearGradient
       inkscape:collect="always"
       id="linearGradient2561"><stop
         style="stop-color:#1a1a1a;stop-opacity:1;"
         offset="0"
         id="stop2557" /><stop
         style="stop-color:#1a1a1a;stop-opacity:0;"
         offset="1"
         id="stop2559" /></linearGradient><radialGradient
       inkscape:collect="always"
       xlink:href="#linearGradient2561"
       id="radialGradient2563"
       cx="4"
       cy="4"
       fx="4"
       fy="4"
       r="4.0497106"
       gradientUnits="userSpaceOnUse" /></defs><g
     inkscape:label="Layer 1"
     inkscape:groupmode="layer"
     id="layer1"><g
       id="g1428"
       transform="matrix(0.30479038,0,0,0.30479038,3.8856477,84.98238)"
       style="stroke-width:3.28094;stroke-dasharray:none"><g
         id="g1435"
         transform="matrix(1.9334828,0,0,1.9334828,-4.3861578,-113.27763)"><g
           id="g1456"
           transform="matrix(1.0443507,0,0,1.0443507,-0.64710571,-5.4330677)"><g
             id="g1463"
             transform="matrix(0.99957016,0,0,0.99957016,0.0062669,0.05265209)"><g
               id="g1524"
               transform="matrix(0.99997985,0,0,0.99997985,2.9379403e-4,0.00246842)"><g
                 id="g1531"
                 transform="matrix(0.26458331,0,0,0.26458331,10.721608,90.081756)"><g
                   id="g1538"
                   transform="matrix(0.44195059,0,0,0.44195059,7.5304017,67.750526)"><g
                     id="g1545"
                     transform="matrix(1.0001992,0,0,1.0001992,-152.79819,-1669.8257)"><g
                       id="g10837"
                       style="fill:#ffffff"><text
                         xml:space="preserve"
                         style="font-weight:300;font-size:56.7185px;line-height:1.25;font-family:Roboto;-inkscape-font-specification:'Roboto Light';letter-spacing:-2.57422px;stroke-width:12.0655"
                         x="2462.0796"
                         y="3831.6863"
                         id="text370"><tspan
                           sodipodi:role="line"
                           id="tspan368"
                           style="stroke-width:12.0655"
                           x="2462.0796"
                           y="3831.6863" /></text><path
                         style="fill:#050505;fill-opacity:1;stroke-width:12.0655"
                         d="m 13.878429,3970.3396 v -90.0506 l 835.701591,-0.9664 835.70178,-0.9661 35.7735,-9.8806 c 49.2103,-13.5915 91.802,-31.3694 203.2611,-84.8414 52.5876,-25.2288 113.3001,-52.7209 134.9166,-61.0936 73.3169,-28.3976 154.4435,-48.8431 245.6999,-61.9213 43.4329,-6.2245 111.9876,-6.5878 1242.9799,-6.5878 1129.9899,0 1199.5853,0.368 1242.9797,6.5735 93.6577,13.3934 172.3696,33.4043 248.5338,63.1851 23.158,9.055 90.483,39.5218 149.611,67.7043 117.5726,56.0385 153.8194,70.175 208.5201,81.3221 35.6055,7.256 49.8181,7.3784 856.6205,7.3784 h 820.414 v 90.0977 90.0976 H 3544.2353 13.878429 Z"
                         id="path6468" /><g
                         id="g6510"
                         transform="matrix(10.171879,0,0,10.171879,3536.851,3732.377)"
                         style="fill:#1a1a1a;fill-opacity:0.62352943;stroke:#000000;stroke-width:0.09942117;stroke-dasharray:none"><g
                           id="g10807"
                           style="fill:#1a1a1a;fill-opacity:0.30000001;stroke:#000000;stroke-width:0.09942117;stroke-dasharray:none"><path
                             style="fill:#1a1a1a;fill-opacity:0.30000001;stroke-width:0.09942117;stroke:#000000;stroke-dasharray:none"
                             d="M 4,0 C 1.790855,0 0,1.790855 0,4 0,6.209145 1.790855,8 4,8 6.209145,8 8,6.209145 8,4 8,1.7908545 6.209145,0 4,0 Z"
                             id="path534"
                             sodipodi:nodetypes="sssss" /></g></g><g
                         id="g6528"
                         transform="matrix(10.171879,0,0,10.171879,3977.8211,3732.377)"
                         style="fill:url(#radialGradient2563);fill-opacity:1;stroke-width:0.09942117;stroke-dasharray:none;stroke:#000000"><g
                           id="g10803"
                           style="fill:url(#radialGradient2563);fill-opacity:1;stroke-width:0.09942117;stroke-dasharray:none;stroke:#000000"><path
                             style="fill:#1a1a1a;fill-opacity:0.30000001;stroke-width:0.09942117;stroke-dasharray:none;stroke:#000000"
                             d="M 4,0 C 1.790855,0 0,1.790855 0,4 0,6.209145 1.790855,8 4,8 6.209145,8 8,6.209145 8,4 8,1.7908545 6.209145,0 4,0 Z"
                             id="path6526"
                             sodipodi:nodetypes="sssss" /></g></g><g
                         id="g18414"
                         transform="matrix(8.2182311,0,0,8.2182311,3544.6655,3740.1915)"
                         style="fill:#000000;fill-opacity:0.30000001"><g
                           id="g18412"
                           style="fill:#000000;fill-opacity:0.30000001" /></g><path
                         sodipodi:type="star"
                         style="fill:#1a1a1a;fill-opacity:0.30000001;stroke:#000000;stroke-width:1.77150502;stroke-linecap:square;stroke-linejoin:miter;stroke-miterlimit:4;stroke-dasharray:none;stroke-opacity:0.60000002;paint-order:markers stroke fill"
                         id="path10"
                         sodipodi:sides="5"
                         sodipodi:cx="106.58928"
                         sodipodi:cy="133.42557"
                         sodipodi:r1="93.288933"
                         sodipodi:r2="35.720333"
                         sodipodi:arg1="0.91757105"
                         sodipodi:arg2="1.5458896"
                         inkscape:flatsided="false"
                         inkscape:rounded="0"
                         inkscape:randomized="0"
                         d="m 163.28571,207.5089 -55.80685,-38.37408 -53.826857,41.10526 19.250654,-64.9337 -55.726841,-38.49016 67.704401,-1.75716 19.385783,-64.893491 22.59296,63.847721 67.70791,-1.61622 -53.74118,41.21722 z"
                         inkscape:transform-center-x="-6.1097944e-05"
                         inkscape:transform-center-y="-0.38455515"
                         transform="matrix(0.54290675,0.01497645,-0.0135536,0.59990086,4339.9611,3693.0289)" /><path
                         sodipodi:type="star"
                         style="fill:#1a1a1a;fill-opacity:0.30000001;stroke:#000000;stroke-width:1.77150502;stroke-linecap:square;stroke-linejoin:miter;stroke-miterlimit:4;stroke-dasharray:none;stroke-opacity:0.60000002;paint-order:markers stroke fill"
                         id="path215"
                         sodipodi:sides="5"
                         sodipodi:cx="106.58928"
                         sodipodi:cy="133.42557"
                         sodipodi:r1="93.288933"
                         sodipodi:r2="35.720333"
                         sodipodi:arg1="0.91757105"
                         sodipodi:arg2="1.5458896"
                         inkscape:flatsided="false"
                         inkscape:rounded="0"
                         inkscape:randomized="0"
                         d="m 163.28571,207.5089 -55.80685,-38.37408 -53.826857,41.10526 19.250654,-64.9337 -55.726841,-38.49016 67.704401,-1.75716 19.385783,-64.893491 22.59296,63.847721 67.70791,-1.61622 -53.74118,41.21722 z"
                         inkscape:transform-center-x="-6.1097944e-05"
                         inkscape:transform-center-y="-0.38455515"
                         transform="matrix(0.54290675,0.01497645,-0.0135536,0.59990086,4460.3976,3693.0289)" /><path
                         sodipodi:type="star"
                         style="fill:#1a1a1a;fill-opacity:0.30000001;stroke:#000000;stroke-width:1.77150502;stroke-linecap:square;stroke-linejoin:miter;stroke-miterlimit:4;stroke-dasharray:none;stroke-opacity:0.60000002;paint-order:markers stroke fill"
                         id="path217"
                         sodipodi:sides="5"
                         sodipodi:cx="106.58928"
                         sodipodi:cy="133.42557"
                         sodipodi:r1="93.288933"
                         sodipodi:r2="35.720333"
                         sodipodi:arg1="0.91757105"
                         sodipodi:arg2="1.5458896"
                         inkscape:flatsided="false"
                         inkscape:rounded="0"
                         inkscape:randomized="0"
                         d="m 163.28571,207.5089 -55.80685,-38.37408 -53.826857,41.10526 19.250654,-64.9337 -55.726841,-38.49016 67.704401,-1.75716 19.385783,-64.893491 22.59296,63.847721 67.70791,-1.61622 -53.74118,41.21722 z"
                         inkscape:transform-center-x="-6.1097944e-05"
                         inkscape:transform-center-y="-0.38455515"
                         transform="matrix(0.54290675,0.01497645,-0.0135536,0.59990086,4579.4551,3693.0289)" /><path
                         sodipodi:type="star"
                         style="fill:#1a1a1a;fill-opacity:0.30000001;stroke:#000000;stroke-width:1.77150502;stroke-linecap:square;stroke-linejoin:miter;stroke-miterlimit:4;stroke-dasharray:none;stroke-opacity:0.60000002;paint-order:markers stroke fill"
                         id="path219"
                         sodipodi:sides="5"
                         sodipodi:cx="106.58928"
                         sodipodi:cy="133.42557"
                         sodipodi:r1="93.288933"
                         sodipodi:r2="35.720333"
                         sodipodi:arg1="0.91757105"
                         sodipodi:arg2="1.5458896"
                         inkscape:flatsided="false"
                         inkscape:rounded="0"
                         inkscape:randomized="0"
                         d="m 163.28571,207.5089 -55.80685,-38.37408 -53.826857,41.10526 19.250654,-64.9337 -55.726841,-38.49016 67.704401,-1.75716 19.385783,-64.893491 22.59296,63.847721 67.70791,-1.61622 -53.74118,41.21722 z"
                         inkscape:transform-center-x="-6.1097944e-05"
                         inkscape:transform-center-y="-0.38455515"
                         transform="matrix(0.54290675,0.01497645,-0.0135536,0.59990086,4699.4317,3693.0289)" /><path
                         sodipodi:type="star"
                         style="fill:#1a1a1a;fill-opacity:0.30000001;stroke:#000000;stroke-width:1.77150502;stroke-linecap:square;stroke-linejoin:miter;stroke-miterlimit:4;stroke-dasharray:none;stroke-opacity:0.60000002;paint-order:markers stroke fill"
                         id="path221"
                         sodipodi:sides="5"
                         sodipodi:cx="106.58928"
                         sodipodi:cy="133.42557"
                         sodipodi:r1="93.288933"
                         sodipodi:r2="35.720333"
                         sodipodi:arg1="0.91757105"
                         sodipodi:arg2="1.5458896"
                         inkscape:flatsided="false"
                         inkscape:rounded="0"
                         inkscape:randomized="0"
                         d="m 163.28571,207.5089 -55.80685,-38.37408 -53.826857,41.10526 19.250654,-64.9337 -55.726841,-38.49016 67.704401,-1.75716 19.385783,-64.893491 22.59296,63.847721 67.70791,-1.61622 -53.74118,41.21722 z"
                         inkscape:transform-center-x="-6.1097944e-05"
                         inkscape:transform-center-y="-0.38455515"
                         transform="matrix(0.54290675,0.01497645,-0.0135536,0.59990086,4817.1116,3693.0289)" /><g
                         id="g278"
                         transform="matrix(3.9113222,0,0,3.9113222,3561.8932,3757.4192)"
                         style="fill:#1a1a1a;fill-opacity:0.623529;stroke:none;stroke-width:0.0994212;stroke-dasharray:none"><g
                           id="g276"
                           style="fill:#1a1a1a;fill-opacity:0.3;stroke:none;stroke-width:0.0994212;stroke-dasharray:none"><path
                             style="fill:#1a1a1a;fill-opacity:0.3;stroke:none;stroke-width:0.0994212;stroke-dasharray:none"
                             d="M 4,0 C 1.790855,0 0,1.790855 0,4 0,6.209145 1.790855,8 4,8 6.209145,8 8,6.209145 8,4 8,1.7908545 6.209145,0 4,0 Z"
                             id="path274"
                             sodipodi:nodetypes="sssss" /></g></g><g
                         id="g284"
                         transform="matrix(3.9113222,0,0,3.9113222,4002.3676,3757.4192)"
                         style="fill:#1a1a1a;fill-opacity:0.623529;stroke:none;stroke-width:0.0994212;stroke-dasharray:none"><g
                           id="g282"
                           style="fill:#1a1a1a;fill-opacity:0.3;stroke:none;stroke-width:0.0994212;stroke-dasharray:none"><path
                             style="fill:#1a1a1a;fill-opacity:0.3;stroke:none;stroke-width:0.0994212;stroke-dasharray:none"
                             d="M 4,0 C 1.790855,0 0,1.790855 0,4 0,6.209145 1.790855,8 4,8 6.209145,8 8,6.209145 8,4 8,1.7908545 6.209145,0 4,0 Z"
                             id="path280"
                             sodipodi:nodetypes="sssss" /></g></g></g><g
                       id="g2741"
                       transform="matrix(1.4087961,0,0,1.4087961,3014.9738,3577.467)"
                       style="fill:#000000;stroke:#000000" /></g></g></g></g></g></g></g></g></g></svg>
