<?xml version="1.0" encoding="UTF-8" standalone="no"?>
<svg
   version="1.1"
   id="svg6"
   sodipodi:docname="logo.svg"
   width="1920"
   height="1080"
   inkscape:version="1.2 (dc2aedaf03, 2022-05-15)"
   xml:space="preserve"
   xmlns:inkscape="http://www.inkscape.org/namespaces/inkscape"
   xmlns:sodipodi="http://sodipodi.sourceforge.net/DTD/sodipodi-0.dtd"
   xmlns:xlink="http://www.w3.org/1999/xlink"
   xmlns="http://www.w3.org/2000/svg"
   xmlns:svg="http://www.w3.org/2000/svg"
   xmlns:rdf="http://www.w3.org/1999/02/22-rdf-syntax-ns#"
   xmlns:cc="http://creativecommons.org/ns#"
   xmlns:dc="http://purl.org/dc/elements/1.1/"><metadata
     id="metadata12"><rdf:RDF><cc:Work
         rdf:about=""><dc:format>image/svg+xml</dc:format><dc:type
           rdf:resource="http://purl.org/dc/dcmitype/StillImage" /></cc:Work></rdf:RDF></metadata><defs
     id="defs10"><linearGradient
       inkscape:collect="always"
       id="linearGradient848"><stop
         style="stop-color:#cccccc;stop-opacity:1;"
         offset="0"
         id="stop844" /><stop
         style="stop-color:#cccccc;stop-opacity:0;"
         offset="1"
         id="stop846" /></linearGradient><linearGradient
       inkscape:collect="always"
       xlink:href="#linearGradient848"
       id="linearGradient850"
       x1="270.66699"
       y1="72.892998"
       x2="270.66699"
       y2="181.57129"
       gradientUnits="userSpaceOnUse" /><linearGradient
       inkscape:collect="always"
       xlink:href="#linearGradient848"
       id="linearGradient867"
       gradientUnits="userSpaceOnUse"
       x1="270.66699"
       y1="72.892998"
       x2="270.66699"
       y2="161.99356" /><linearGradient
       inkscape:collect="always"
       xlink:href="#linearGradient848"
       id="linearGradient880"
       gradientUnits="userSpaceOnUse"
       x1="270.66699"
       y1="72.892998"
       x2="270.66699"
       y2="138.76451" /><clipPath
       clipPathUnits="userSpaceOnUse"
       id="clipPath18"><path
         d="M 0,420.945 H 420.945 V 0 H 0 Z"
         id="path16" /></clipPath></defs><sodipodi:namedview
     pagecolor="#4d4d4d"
     bordercolor="#666666"
     borderopacity="1"
     objecttolerance="10"
     gridtolerance="10"
     guidetolerance="10"
     inkscape:pageopacity="0"
     inkscape:pageshadow="2"
     inkscape:window-width="640"
     inkscape:window-height="480"
     id="namedview8"
     showgrid="false"
     inkscape:pagecheckerboard="true"
     showguides="true"
     inkscape:guide-bbox="true"
     inkscape:zoom="0.5"
     inkscape:cx="765"
     inkscape:cy="512"
     inkscape:current-layer="g38"
     inkscape:document-rotation="0"
     inkscape:showpageshadow="0"
     inkscape:deskcolor="#4d4d4d"><sodipodi:guide
       position="512.476,984"
       orientation="0,1"
       id="guide180"
       inkscape:locked="false"
       inkscape:label=""
       inkscape:color="rgb(0,134,229)" /><sodipodi:guide
       position="656.34709,1080"
       orientation="0,1"
       id="guide229"
       inkscape:locked="false"
       inkscape:label=""
       inkscape:color="rgb(0,134,229)" /><sodipodi:guide
       position="802.63655,492.00109"
       orientation="0,-1"
       id="guide243"
       inkscape:locked="false" /></sodipodi:namedview><g
     id="g38"
     transform="matrix(1.3346268,0,0,1.3346268,29.61184,477.69937)"><g
       id="g27"
       transform="matrix(0.52634823,0,0,0.52634823,579.21249,-11.807387)"><g
         id="g12"
         transform="matrix(1.4294874,0,0,1.4294874,-106.7827,41.932353)"><path
           id="path6"
           inkscape:connector-curvature="0"
           fill="#ffffff"
           d="m 346.7,23.7 c -1.4,-1.5 -3.6,-2.3 -6.7,-2.3 -2.6,0 -4.7,0.6 -6.3,1.9 -1.6,1.2 -2.5,3.2 -2.9,6 -0.4,2.8 -0.6,8.1 -0.6,16.1 0,7.9 0.2,13.2 0.5,15.7 0.3,2.6 1.2,4.6 2.6,6.1 1.4,1.5 3.7,2.3 6.7,2.3 2.5,0 4.6,-0.6 6.2,-1.8 1.6,-1.2 2.6,-3.2 3,-6 0.4,-2.8 0.6,-8.2 0.6,-16.2 0,-7.9 -0.2,-13.1 -0.5,-15.7 -0.4,-2.5 -1.2,-4.6 -2.6,-6.1 z" /><path
           id="path8"
           inkscape:connector-curvature="0"
           fill="#ffffff"
           d="m 271.8,23.5 c -1.8,-1 -4.1,-1.4 -6.9,-1.4 h -7.1 v 46.7 h 4.6 c 7,0 11.2,-1.8 12.7,-5.5 1.5,-3.7 2.2,-9.9 2.2,-18.8 0,-6.9 -0.4,-11.9 -1.3,-15 -1,-3 -2.4,-5 -4.2,-6 z" /><path
           id="path10"
           inkscape:connector-curvature="0"
           fill="#ffffff"
           d="M 74.7,0.6 V 96.2 H 388.1 V 0.6 Z m 89.6,90.1 H 78.8 V 5.2 h 85.5 z m 45.2,-22.6 c -3.8,2.7 -8.8,4.1 -15.1,4.1 -5.4,0 -9.6,-1.1 -12.6,-3.3 -3,-2.2 -4.5,-4.6 -4.5,-7.4 0,-1.8 0.7,-3.3 2,-4.5 1.3,-1.1 2.9,-1.7 4.8,-1.7 1.7,0 3.2,0.5 4.5,1.5 1.3,1 1.9,2.3 1.9,3.9 0,2.2 -1.4,4 -4.3,5.4 -0.6,0.3 -0.9,0.6 -0.9,1 0,0.7 0.8,1.2 2.4,1.8 1.6,0.5 3.3,0.7 5,0.7 5.6,0 8.4,-4.1 8.4,-12.3 0,-8.1 -3.4,-12.2 -10,-12.2 l -5.6,0.2 c -1.1,0 -1.7,-0.4 -1.7,-1.2 0,-0.9 0.6,-1.4 1.8,-1.4 l 4.1,0.2 c 4.1,0 6.9,-0.9 8.3,-2.8 1.4,-1.8 2.1,-4.4 2.1,-7.8 0,-3.5 -0.5,-6.1 -1.6,-7.7 -1.1,-1.6 -2.9,-2.5 -5.5,-2.5 -1.4,0 -2.7,0.2 -4,0.7 -1.2,0.5 -1.9,0.9 -1.9,1.4 0,0.4 0.4,0.9 1.2,1.3 2.1,1.4 3.2,2.8 3.2,4.4 0,1.6 -0.6,2.8 -1.8,3.7 -1.2,0.9 -2.5,1.4 -4,1.4 -1.7,0 -3.3,-0.5 -4.6,-1.6 -1.3,-1.1 -2,-2.4 -2,-3.9 0,-2.7 1.5,-5 4.5,-6.9 3,-1.9 6.9,-2.9 11.6,-2.9 5.2,0 9.6,1.1 13.2,3.3 3.6,2.2 5.4,5 5.4,8.5 0,6.8 -6.3,10.9 -19,12.3 V 44 c 7,0.1 12.1,1.5 15.5,4.2 3.3,2.6 5,5.8 5,9.6 -0.1,4.2 -2,7.6 -5.8,10.3 z M 291,55.7 c -1.5,3.3 -3.8,6.4 -7,9.1 -3.1,2.7 -6.3,4.5 -9.6,5.3 -3.3,0.8 -7.3,1.2 -12.1,1.2 h -25.9 v -2.5 h 7.3 V 22.1 h -7.3 v -2.5 h 29.3 c 8.5,0 15.2,2.4 20.1,7.2 4.9,4.8 7.4,10.9 7.4,18.2 0.1,3.8 -0.7,7.4 -2.2,10.7 z m 67.4,9.1 c -5,4.8 -11,7.2 -18.1,7.2 -7.7,0 -14,-2.6 -18.9,-7.7 -4.8,-5.1 -7.3,-11.5 -7.3,-19.1 0,-7.7 2.5,-14.1 7.7,-19 5.1,-4.9 11.2,-7.4 18.4,-7.4 6.6,0 12.6,2.3 17.8,6.9 5.2,4.6 7.9,11.2 7.9,19.7 -0.1,8.1 -2.6,14.5 -7.5,19.4 z" /></g><g
         id="g109"
         transform="matrix(0.81739939,0,0,0.81739939,10.219421,-6.6358904)"><path
           id="path4"
           inkscape:connector-curvature="0"
           fill="#ffffff"
           d="m 53.299297,206.07147 c 0,-1.8379 8.270581,-3.21633 18.379068,-3.21633 10.108488,0 18.379068,1.37843 18.379068,3.21633 0,1.83791 -8.27058,3.21634 -18.379068,3.21634 -10.108487,0 -18.379068,-1.53159 -18.379068,-3.21634 z"
           style="fill:#ffffff;fill-opacity:0.5;stroke-width:1.53159" /><path
           id="path14"
           inkscape:connector-curvature="0"
           fill="#ffffff"
           d="m 56.056157,175.43969 c 0,-8.73005 7.04531,-15.77536 15.622208,-15.77536 8.576899,0 15.622208,7.04531 15.622208,15.77536 0,8.73006 -7.045309,15.77537 -15.622208,15.77537 -8.576898,0 -15.622208,-7.04531 -15.622208,-15.77537 z"
           style="stroke-width:1.53159" /><path
           id="path16-1"
           inkscape:connector-curvature="0"
           fill="#ffffff"
           d="m 57.12827,134.54627 c -2.297384,1.53159 -2.910019,10.4148 -2.910019,10.4148 0,0 0.612635,8.88322 2.910019,10.41481 2.297383,1.53159 14.550095,2.45054 14.550095,2.45054 0,0 12.252712,-0.91895 14.550096,-2.45054 2.297383,-1.53159 2.910019,-10.41481 2.910019,-10.41481 0,0 -0.612636,-8.88321 -2.910019,-10.4148 -2.297384,-1.53159 -14.550096,-2.45054 -14.550096,-2.45054 0,0 -12.252712,0.91895 -14.550095,2.45054 z"
           style="stroke-width:1.53159" /><polygon
           id="polygon18"
           fill="#ffffff"
           points="58.8,24.2 46.8,36.2 34.8,24.2 46.8,12.1 "
           transform="matrix(1.531589,0,0,1.531589,0,75.580092)" /></g></g></g></svg>
