<?xml version="1.0" encoding="UTF-8" standalone="no"?>
<!-- Created with Inkscape (http://www.inkscape.org/) -->

<svg
   width="1920"
   height="1080"
   viewBox="0 0 507.99999 285.75"
   version="1.1"
   id="svg5"
   xml:space="preserve"
   inkscape:version="1.2 (dc2aedaf03, 2022-05-15)"
   sodipodi:docname="system_info_box.svg"
   xmlns:inkscape="http://www.inkscape.org/namespaces/inkscape"
   xmlns:sodipodi="http://sodipodi.sourceforge.net/DTD/sodipodi-0.dtd"
   xmlns:xlink="http://www.w3.org/1999/xlink"
   xmlns="http://www.w3.org/2000/svg"
   xmlns:svg="http://www.w3.org/2000/svg"><sodipodi:namedview
     id="namedview7"
     pagecolor="#505050"
     bordercolor="#eeeeee"
     borderopacity="1"
     inkscape:showpageshadow="0"
     inkscape:pageopacity="0"
     inkscape:pagecheckerboard="0"
     inkscape:deskcolor="#505050"
     inkscape:document-units="px"
     showgrid="false"
     inkscape:zoom="2"
     inkscape:cx="1764.25"
     inkscape:cy="84.5"
     inkscape:current-layer="layer1"
     showguides="true"><sodipodi:guide
       position="493.98424,264.21141"
       orientation="1,0"
       id="guide14747"
       inkscape:locked="false" /><sodipodi:guide
       position="493.96085,263.34613"
       orientation="0,-1"
       id="guide14749"
       inkscape:locked="false" /><sodipodi:guide
       position="493.16572,229.06213"
       orientation="0,-1"
       id="guide17057"
       inkscape:locked="false" /></sodipodi:namedview><defs
     id="defs2"><linearGradient
       inkscape:collect="always"
       id="linearGradient17668"><stop
         style="stop-color:#000000;stop-opacity:0.5;"
         offset="0"
         id="stop17664" /><stop
         style="stop-color:#000000;stop-opacity:0;"
         offset="1"
         id="stop17666" /></linearGradient><radialGradient
       inkscape:collect="always"
       xlink:href="#linearGradient17668"
       id="radialGradient17670"
       cx="497.89844"
       cy="39.547089"
       fx="497.89844"
       fy="39.547089"
       r="5.0390124"
       gradientTransform="matrix(0.53817048,0,0,3.736317,229.88486,-108.21336)"
       gradientUnits="userSpaceOnUse" /></defs><g
     inkscape:label="Layer 1"
     inkscape:groupmode="layer"
     id="layer1"><g
       aria-label="FAVORITES"
       id="text3979"
       style="font-weight:300;font-size:7.04246px;line-height:1.25;font-family:Roboto;-inkscape-font-specification:'Roboto Light';letter-spacing:-0.168058px;fill:#f9f9f9;stroke-width:0.240084"
       transform="matrix(0.69384249,0,0,0.69384249,432.53462,-108.54391)"><path
         d="m 57.441194,209.97323 h -1.980691 v 2.04603 h -1.031611 v -5.00675 h 3.259889 v 0.8356 h -2.228278 v 1.29295 h 1.980691 z"
         style="font-weight:bold;-inkscape-font-specification:'Roboto Bold'"
         id="path3363" /><path
         d="m 60.285439,210.98765 h -1.808757 l -0.34387,1.03161 h -1.096946 l 1.863776,-5.00675 h 0.955959 l 1.874092,5.00675 h -1.096945 z m -1.530222,-0.83561 h 1.251687 l -0.629282,-1.87409 z"
         style="font-weight:bold;-inkscape-font-specification:'Roboto Bold'"
         id="path3365" /><path
         d="m 63.61454,210.77789 1.134771,-3.76538 h 1.148526 l -1.743421,5.00675 h -1.076314 l -1.736544,-5.00675 h 1.145088 z"
         style="font-weight:bold;-inkscape-font-specification:'Roboto Bold'"
         id="path3367" /><path
         d="m 70.268865,209.62936 q 0,0.73932 -0.261341,1.29639 -0.261341,0.55707 -0.749637,0.85967 -0.484857,0.30261 -1.114139,0.30261 -0.622405,0 -1.110701,-0.29917 -0.488295,-0.29916 -0.756514,-0.85279 -0.268219,-0.55707 -0.271657,-1.2792 v -0.24759 q 0,-0.73932 0.26478,-1.29983 0.268218,-0.56394 0.753075,-0.86311 0.488296,-0.30261 1.114139,-0.30261 0.625844,0 1.110701,0.30261 0.488296,0.29917 0.753075,0.86311 0.268219,0.56051 0.268219,1.29639 z M 69.2235,209.40241 q 0,-0.78747 -0.281973,-1.19667 -0.281974,-0.40921 -0.804657,-0.40921 -0.519243,0 -0.801217,0.40577 -0.281973,0.40233 -0.285412,1.18291 v 0.24415 q 0,0.76683 0.281973,1.18979 0.281974,0.42296 0.811534,0.42296 0.519244,0 0.797779,-0.40577 0.278534,-0.4092 0.281973,-1.18979 z"
         style="font-weight:bold;-inkscape-font-specification:'Roboto Bold'"
         id="path3369" /><path
         d="m 72.703903,210.18643 h -0.82185 v 1.83283 h -1.03161 v -5.00675 h 1.860337 q 0.887185,0 1.368603,0.39545 0.481419,0.39545 0.481419,1.11758 0,0.51236 -0.223516,0.85623 -0.220077,0.34043 -0.670547,0.54332 l 1.083191,2.04602 v 0.0481 h -1.107262 z m -0.82185,-0.83561 h 0.832166 q 0.388573,0 0.601773,-0.196 0.213199,-0.19945 0.213199,-0.54675 0,-0.35419 -0.202883,-0.55707 -0.199445,-0.20289 -0.615528,-0.20289 h -0.828727 z"
         style="font-weight:bold;-inkscape-font-specification:'Roboto Bold'"
         id="path3371" /><path
         d="m 76.273713,212.01926 h -1.03161 v -5.00675 h 1.03161 z"
         style="font-weight:bold;-inkscape-font-specification:'Roboto Bold'"
         id="path3373" /><path
         d="m 80.730708,207.84811 h -1.533661 v 4.17115 h -1.03161 v -4.17115 h -1.513029 v -0.8356 h 4.0783 z"
         style="font-weight:bold;-inkscape-font-specification:'Roboto Bold'"
         id="path3375" /><path
         d="M 84.162971,209.84944 H 82.18228 v 1.34109 h 2.324562 v 0.82873 h -3.356173 v -5.00675 h 3.349295 v 0.8356 H 82.18228 v 1.19323 h 1.980691 z"
         style="font-weight:bold;-inkscape-font-specification:'Roboto Bold'"
         id="path3377" /><path
         d="m 87.540214,210.70567 q 0,-0.29229 -0.206322,-0.44703 -0.206322,-0.15818 -0.742759,-0.33011 -0.536438,-0.17538 -0.84936,-0.34387 -0.852798,-0.46079 -0.852798,-1.24137 0,-0.40577 0.226955,-0.72213 0.230393,-0.3198 0.656792,-0.49861 0.429837,-0.17882 0.962836,-0.17882 0.536437,0 0.955959,0.19601 0.419521,0.19257 0.649914,0.54675 0.233832,0.35419 0.233832,0.80466 h -1.03161 q 0,-0.34387 -0.216638,-0.533 -0.216639,-0.19257 -0.608651,-0.19257 -0.378257,0 -0.588017,0.16162 -0.209761,0.15818 -0.209761,0.41952 0,0.24415 0.244148,0.40921 0.247586,0.16506 0.725566,0.30948 0.880307,0.26478 1.282635,0.65679 0.402328,0.39202 0.402328,0.9766 0,0.64991 -0.491734,1.02129 -0.491734,0.36794 -1.3239,0.36794 -0.577702,0 -1.052243,-0.20976 -0.47454,-0.2132 -0.725566,-0.58114 -0.247586,-0.36794 -0.247586,-0.8528 h 1.035049 q 0,0.82873 0.990346,0.82873 0.367941,0 0.574263,-0.14787 0.206322,-0.1513 0.206322,-0.41952 z"
         style="font-weight:bold;-inkscape-font-specification:'Roboto Bold'"
         id="path3379" /></g><g
       aria-label="GAMES PLAYED"
       id="text272"
       style="font-weight:300;font-size:7.04246px;line-height:1.25;font-family:Roboto;-inkscape-font-specification:'Roboto Light';letter-spacing:-0.168058px;fill:#f9f9f9;stroke-width:0.240084"
       transform="matrix(0.69384249,0,0,0.69384249,432.53276,-129.57617)"><path
         d="m 43.852819,223.47943 q -0.278534,0.33356 -0.787462,0.51924 -0.508928,0.18226 -1.127894,0.18226 -0.649915,0 -1.141649,-0.28198 -0.488295,-0.28541 -0.756514,-0.82529 -0.26478,-0.53987 -0.271657,-1.26888 v -0.34043 q 0,-0.74963 0.251025,-1.29639 0.254464,-0.55019 0.729004,-0.83904 0.47798,-0.29229 1.117578,-0.29229 0.890624,0 1.392674,0.4264 0.502051,0.42296 0.594895,1.23449 h -1.0041 q -0.06877,-0.42984 -0.306045,-0.62928 -0.233831,-0.19945 -0.646475,-0.19945 -0.526122,0 -0.801218,0.39546 -0.275096,0.39545 -0.278535,1.17603 v 0.3198 q 0,0.78746 0.299167,1.18979 0.299167,0.40233 0.876869,0.40233 0.581141,0 0.828727,-0.24759 v -0.86311 h -0.938765 v -0.75995 h 1.970375 z"
         style="font-weight:bold;-inkscape-font-specification:'Roboto Bold'"
         id="path3382" /><path
         d="m 47.346978,223.08054 h -1.808757 l -0.34387,1.03161 h -1.096945 l 1.863776,-5.00675 h 0.955959 l 1.874092,5.00675 h -1.096946 z m -1.530222,-0.8356 h 1.251687 l -0.629282,-1.87409 z"
         style="font-weight:bold;-inkscape-font-specification:'Roboto Bold'"
         id="path3384" /><path
         d="m 50.438808,219.1054 1.286075,3.63127 1.279197,-3.63127 h 1.354848 v 5.00675 h -1.035049 v -1.3686 l 0.103161,-2.36239 -1.35141,3.73099 h -0.708372 l -1.347971,-3.72755 0.103161,2.35895 v 1.3686 h -1.03161 v -5.00675 z"
         style="font-weight:bold;-inkscape-font-specification:'Roboto Bold'"
         id="path3386" /><path
         d="M 58.104112,221.94233 H 56.12342 v 1.3411 h 2.324562 v 0.82872 h -3.356173 v -5.00675 h 3.349295 v 0.83561 H 56.12342 v 1.19323 h 1.980692 z"
         style="font-weight:bold;-inkscape-font-specification:'Roboto Bold'"
         id="path3388" /><path
         d="m 61.481355,222.79857 q 0,-0.29229 -0.206322,-0.44703 -0.206322,-0.15818 -0.742759,-0.33012 -0.536438,-0.17537 -0.84936,-0.34387 -0.852797,-0.46078 -0.852797,-1.24137 0,-0.40577 0.226954,-0.72213 0.230393,-0.3198 0.656792,-0.49861 0.429837,-0.17881 0.962836,-0.17881 0.536437,0 0.955959,0.19601 0.419522,0.19256 0.649915,0.54675 0.233831,0.35418 0.233831,0.80465 h -1.03161 q 0,-0.34387 -0.216638,-0.53299 -0.216638,-0.19257 -0.60865,-0.19257 -0.378258,0 -0.588018,0.16162 -0.209761,0.15818 -0.209761,0.41952 0,0.24415 0.244148,0.4092 0.247586,0.16506 0.725566,0.30949 0.880307,0.26478 1.282635,0.65679 0.402328,0.39201 0.402328,0.97659 0,0.64992 -0.491734,1.0213 -0.491734,0.36794 -1.3239,0.36794 -0.577702,0 -1.052243,-0.20976 -0.47454,-0.2132 -0.725566,-0.58115 -0.247586,-0.36794 -0.247586,-0.85279 h 1.035049 q 0,0.82872 0.990346,0.82872 0.367941,0 0.574263,-0.14786 0.206322,-0.1513 0.206322,-0.41952 z"
         style="font-weight:bold;-inkscape-font-specification:'Roboto Bold'"
         id="path3390" /><path
         d="m 65.663692,222.3481 v 1.76405 h -1.03161 v -5.00675 h 1.953182 q 0.563947,0 0.990346,0.20633 0.429838,0.20632 0.660231,0.58801 0.230393,0.37826 0.230393,0.86312 0,0.73588 -0.505489,1.16228 -0.502051,0.42296 -1.392674,0.42296 z m 0,-0.83561 h 0.921572 q 0.409206,0 0.622405,-0.19256 0.216638,-0.19257 0.216638,-0.5502 0,-0.36794 -0.216638,-0.59489 -0.216638,-0.22695 -0.598334,-0.23383 h -0.945643 z"
         style="font-weight:bold;-inkscape-font-specification:'Roboto Bold'"
         id="path3392" /><path
         d="m 70.038158,223.28343 h 2.190453 v 0.82872 h -3.222063 v -5.00675 h 1.03161 z"
         style="font-weight:bold;-inkscape-font-specification:'Roboto Bold'"
         id="path3394" /><path
         d="M 75.543957,223.08054 H 73.7352 l -0.34387,1.03161 h -1.096946 l 1.863776,-5.00675 h 0.955959 l 1.874092,5.00675 h -1.096945 z m -1.530222,-0.8356 h 1.251687 l -0.629282,-1.87409 z"
         style="font-weight:bold;-inkscape-font-specification:'Roboto Bold'"
         id="path3396" /><path
         d="m 78.498241,221.36119 1.041926,-2.25579 h 1.127894 l -1.643699,3.19112 v 1.81563 h -1.048804 v -1.81563 l -1.643699,-3.19112 h 1.131333 z"
         style="font-weight:bold;-inkscape-font-specification:'Roboto Bold'"
         id="path3398" /><path
         d="M 83.969652,221.94233 H 81.98896 v 1.3411 h 2.324562 v 0.82872 H 80.95735 v -5.00675 h 3.349295 v 0.83561 H 81.98896 v 1.19323 h 1.980692 z"
         style="font-weight:bold;-inkscape-font-specification:'Roboto Bold'"
         id="path3400" /><path
         d="m 84.750677,224.11215 v -5.00675 h 1.540538 q 0.660231,0 1.179475,0.29917 0.522682,0.29573 0.814972,0.84592 0.29229,0.54675 0.29229,1.24481 v 0.23039 q 0,0.69806 -0.288851,1.24137 -0.285412,0.54332 -0.808095,0.84249 -0.522683,0.29916 -1.179475,0.3026 z m 1.031611,-4.17114 v 3.34242 h 0.498611 q 0.605212,0 0.925011,-0.39546 0.319799,-0.39545 0.326676,-1.13133 v -0.26478 q 0,-0.76339 -0.31636,-1.1554 -0.316361,-0.39545 -0.925011,-0.39545 z"
         style="font-weight:bold;-inkscape-font-specification:'Roboto Bold'"
         id="path3402" /></g><g
       aria-label="LAST PLAYED"
       id="text280"
       style="font-weight:300;font-size:7.04246px;line-height:1.25;font-family:Roboto;-inkscape-font-specification:'Roboto Light';letter-spacing:-0.168058px;fill:#f9f9f9;stroke-width:0.240084"
       transform="matrix(0.69384249,0,0,0.69384249,432.53385,-121.06863)"><path
         d="m 47.651455,247.4616 h 2.190453 v 0.82873 h -3.222063 v -5.00675 h 1.03161 z"
         style="font-weight:bold;-inkscape-font-specification:'Roboto Bold'"
         id="path3426" /><path
         d="m 53.157254,247.25872 h -1.808757 l -0.34387,1.03161 h -1.096946 l 1.863776,-5.00675 h 0.955959 l 1.874092,5.00675 h -1.096945 z m -1.530222,-0.83561 h 1.251687 l -0.629282,-1.87409 z"
         style="font-weight:bold;-inkscape-font-specification:'Roboto Bold'"
         id="path3428" /><path
         d="m 57.497333,246.97675 q 0,-0.29229 -0.206322,-0.44704 -0.206322,-0.15818 -0.74276,-0.33011 -0.536437,-0.17538 -0.849359,-0.34387 -0.852798,-0.46079 -0.852798,-1.24137 0,-0.40577 0.226955,-0.72213 0.230393,-0.3198 0.656792,-0.49861 0.429837,-0.17881 0.962836,-0.17881 0.536437,0 0.955959,0.196 0.419521,0.19257 0.649914,0.54676 0.233832,0.35418 0.233832,0.80465 h -1.03161 q 0,-0.34387 -0.216638,-0.533 -0.216639,-0.19256 -0.608651,-0.19256 -0.378257,0 -0.588017,0.16161 -0.209761,0.15818 -0.209761,0.41953 0,0.24414 0.244148,0.4092 0.247586,0.16506 0.725565,0.30948 0.880308,0.26478 1.282636,0.6568 0.402328,0.39201 0.402328,0.97659 0,0.64991 -0.491734,1.02129 -0.491734,0.36794 -1.3239,0.36794 -0.577702,0 -1.052243,-0.20976 -0.47454,-0.2132 -0.725566,-0.58114 -0.247586,-0.36794 -0.247586,-0.8528 h 1.035049 q 0,0.82873 0.990346,0.82873 0.367941,0 0.574263,-0.14786 0.206322,-0.15131 0.206322,-0.41952 z"
         style="font-weight:bold;-inkscape-font-specification:'Roboto Bold'"
         id="path3430" /><path
         d="m 62.831197,244.11918 h -1.53366 v 4.17115 h -1.031611 v -4.17115 h -1.513028 v -0.8356 h 4.078299 z"
         style="font-weight:bold;-inkscape-font-specification:'Roboto Bold'"
         id="path3432" /><path
         d="m 65.662125,246.52628 v 1.76405 h -1.031611 v -5.00675 h 1.953183 q 0.563947,0 0.990345,0.20632 0.429838,0.20632 0.660231,0.58802 0.230393,0.37826 0.230393,0.86311 0,0.73589 -0.505489,1.16229 -0.50205,0.42296 -1.392674,0.42296 z m 0,-0.83561 h 0.921572 q 0.409205,0 0.622404,-0.19257 0.216639,-0.19256 0.216639,-0.55019 0,-0.36794 -0.216639,-0.59489 -0.216638,-0.22696 -0.598334,-0.23384 h -0.945642 z"
         style="font-weight:bold;-inkscape-font-specification:'Roboto Bold'"
         id="path3434" /><path
         d="m 70.036591,247.4616 h 2.190452 v 0.82873 H 69.00498 v -5.00675 h 1.031611 z"
         style="font-weight:bold;-inkscape-font-specification:'Roboto Bold'"
         id="path3436" /><path
         d="m 75.542391,247.25872 h -1.808757 l -0.34387,1.03161 h -1.096946 l 1.863776,-5.00675 h 0.955959 l 1.874092,5.00675 H 75.8897 Z m -1.530222,-0.83561 h 1.251687 l -0.629282,-1.87409 z"
         style="font-weight:bold;-inkscape-font-specification:'Roboto Bold'"
         id="path3438" /><path
         d="m 78.496673,245.53937 1.041926,-2.25579 h 1.127894 l -1.643699,3.19111 v 1.81564 H 77.97399 v -1.81564 l -1.643699,-3.19111 h 1.131333 z"
         style="font-weight:bold;-inkscape-font-specification:'Roboto Bold'"
         id="path3440" /><path
         d="m 83.968084,246.12051 h -1.980692 v 1.34109 h 2.324562 v 0.82873 h -3.356172 v -5.00675 h 3.349295 v 0.8356 h -2.317685 v 1.19323 h 1.980692 z"
         style="font-weight:bold;-inkscape-font-specification:'Roboto Bold'"
         id="path3442" /><path
         d="m 84.749109,248.29033 v -5.00675 h 1.540539 q 0.66023,0 1.179474,0.29917 0.522683,0.29573 0.814972,0.84592 0.29229,0.54675 0.29229,1.24481 v 0.23039 q 0,0.69806 -0.288851,1.24137 -0.285412,0.54332 -0.808095,0.84248 -0.522682,0.29917 -1.179474,0.30261 z m 1.031611,-4.17115 v 3.34242 h 0.498611 q 0.605212,0 0.925011,-0.39545 0.319799,-0.39545 0.326677,-1.13133 v -0.26478 q 0,-0.76339 -0.316361,-1.1554 -0.31636,-0.39546 -0.92501,-0.39546 z"
         style="font-weight:bold;-inkscape-font-specification:'Roboto Bold'"
         id="path3444" /></g><rect
       style="opacity:1;fill:url(#radialGradient17670);fill-opacity:1;stroke:none;stroke-width:0.500628;stroke-linecap:square;stroke-linejoin:round;stroke-dasharray:none;stroke-opacity:1;paint-order:fill markers stroke"
       id="rect17654"
       width="2.8751111"
       height="37.74823"
       x="497.84927"
       y="20.672972" /><rect
       style="opacity:1;fill:#ff5555;fill-opacity:0;stroke:none;stroke-width:0.256956;stroke-linecap:square;stroke-linejoin:round;stroke-dasharray:none;stroke-opacity:1;paint-order:fill markers stroke"
       id="rect17059"
       width="0.79374999"
       height="36.020756"
       x="497.133"
       y="22.400444" /></g></svg>
