<?xml version="1.0" encoding="UTF-8" standalone="no"?>
<!-- Created with Inkscape (http://www.inkscape.org/) -->

<svg
   width="1920"
   height="1080"
   viewBox="0 0 507.99999 285.74999"
   version="1.1"
   id="svg5"
   inkscape:version="1.2 (dc2aedaf03, 2022-05-15)"
   sodipodi:docname="prev-next-arrows_filled-r.svg"
   xml:space="preserve"
   xmlns:inkscape="http://www.inkscape.org/namespaces/inkscape"
   xmlns:sodipodi="http://sodipodi.sourceforge.net/DTD/sodipodi-0.dtd"
   xmlns="http://www.w3.org/2000/svg"
   xmlns:svg="http://www.w3.org/2000/svg"><sodipodi:namedview
     id="namedview7"
     pagecolor="#505050"
     bordercolor="#eeeeee"
     borderopacity="1"
     inkscape:showpageshadow="0"
     inkscape:pageopacity="0"
     inkscape:pagecheckerboard="0"
     inkscape:deskcolor="#505050"
     inkscape:document-units="px"
     showgrid="false"
     showguides="false"
     inkscape:zoom="1"
     inkscape:cx="1344.5"
     inkscape:cy="513"
     inkscape:current-layer="g434"><sodipodi:guide
       position="53.211294,185.40044"
       orientation="0.70710678,-0.70710678"
       id="guide9"
       inkscape:locked="false" /><sodipodi:guide
       position="12.435248,120.62147"
       orientation="-0.70710678,-0.70710678"
       id="guide61"
       inkscape:locked="false"
       inkscape:label=""
       inkscape:color="rgb(0,134,229)" /><sodipodi:guide
       position="53.500486,185.40044"
       orientation="1,0"
       id="guide63"
       inkscape:locked="false" /></sodipodi:namedview><defs
     id="defs2" /><g
     inkscape:label="Layer 1"
     inkscape:groupmode="layer"
     id="layer1"><g
       id="g434"
       transform="translate(4.1308768)"><path
         style="fill:#ffffff;fill-opacity:0;stroke:#ffffff;stroke-width:0.39687499;stroke-linecap:butt;stroke-linejoin:miter;stroke-opacity:0;stroke-dasharray:none"
         d="m 4.3397514,142.87512 2.886557,-2.91054 v 5.82083 z"
         id="path119"
         sodipodi:nodetypes="cccc" /><path
         style="fill:#fffff8;fill-opacity:1;stroke:#ffffff;stroke-width:0.39687499;stroke-linecap:butt;stroke-linejoin:miter;stroke-opacity:1;stroke-dasharray:none"
         d="m 495.39848,142.87488 -2.88656,2.91053 v -5.82083 z"
         id="path440"
         sodipodi:nodetypes="cccc" /><g
         id="g8738"
         transform="translate(-9.3516952,6.6265381)"
         style="fill:#ffffff;fill-opacity:0"><path
           d="m 11.041655,144.99167 v -4.23334 h 1.243869 q 0.381522,0 0.616708,0.14111 0.240411,0.14112 0.350164,0.41289 0.11498,0.26654 0.11498,0.64806 0,0.41288 -0.141111,0.66897 -0.141111,0.25087 -0.397202,0.36585 -0.250864,0.11498 -0.595803,0.11498 h -0.418107 v 1.88148 z m 0.773498,-2.42502 h 0.292675 q 0.209054,0 0.324033,-0.0575 0.120206,-0.0627 0.162017,-0.19338 0.04704,-0.13588 0.04704,-0.36061 0,-0.22996 -0.03659,-0.37107 -0.03136,-0.14634 -0.146337,-0.21428 -0.109753,-0.0679 -0.350165,-0.0679 h -0.292675 z"
           style="font-style:normal;font-weight:500;font-size:5.22634px;line-height:1.25;font-family:Oswald;-inkscape-font-specification:'Oswald Medium';letter-spacing:-0.0926042px;fill:#ffffff;fill-opacity:0;stroke-width:0.17817"
           id="path8699" /><path
           d="m 13.68243,144.99167 v -4.23334 h 1.01391 q 0.42856,0 0.721235,0.10453 0.297901,0.0993 0.449465,0.34494 0.15679,0.24564 0.15679,0.66897 0,0.25609 -0.04704,0.45992 -0.04704,0.20383 -0.162016,0.35016 -0.109754,0.14111 -0.308355,0.21951 l 0.590577,2.08531 h -0.773498 l -0.512182,-1.93897 h -0.355391 v 1.93897 z m 0.773498,-2.42502 h 0.240412 q 0.224732,0 0.355391,-0.0627 0.135885,-0.0679 0.193374,-0.20905 0.05749,-0.14634 0.05749,-0.37107 0,-0.31881 -0.120206,-0.4756 -0.114979,-0.16202 -0.444238,-0.16202 h -0.282223 z"
           style="font-style:normal;font-weight:500;font-size:5.22634px;line-height:1.25;font-family:Oswald;-inkscape-font-specification:'Oswald Medium';letter-spacing:-0.0926042px;fill:#ffffff;fill-opacity:0;stroke-width:0.17817"
           id="path8701" /><path
           d="m 16.51135,144.99167 v -4.23334 h 1.776955 v 0.54354 h -1.003457 v 1.21774 h 0.789177 v 0.53831 h -0.789177 v 1.40066 h 1.01391 v 0.53309 z"
           style="font-style:normal;font-weight:500;font-size:5.22634px;line-height:1.25;font-family:Oswald;-inkscape-font-specification:'Oswald Medium';letter-spacing:-0.0926042px;fill:#ffffff;fill-opacity:0;stroke-width:0.17817"
           id="path8703" /><path
           d="m 19.303683,144.99167 -0.851894,-4.23334 h 0.684651 l 0.559218,2.9947 0.522634,-2.9947 h 0.70033 l -0.851894,4.23334 z"
           style="font-style:normal;font-weight:500;font-size:5.22634px;line-height:1.25;font-family:Oswald;-inkscape-font-specification:'Oswald Medium';letter-spacing:-0.0926042px;fill:#ffffff;fill-opacity:0;stroke-width:0.17817"
           id="path8705" /></g><g
         id="g8732"
         transform="translate(460.44812,6.6265381)"
         style="fill:#ffffff;fill-opacity:0"><path
           d="m 28.324186,144.99167 v -4.23334 h 0.538313 l 1.029589,2.41457 v -2.41457 h 0.637614 v 4.23334 h -0.512181 l -1.034816,-2.52955 v 2.52955 z"
           style="font-style:normal;font-weight:500;font-size:5.22634px;line-height:1.25;font-family:Oswald;-inkscape-font-specification:'Oswald Medium';letter-spacing:-0.0926042px;fill:#ffffff;fill-opacity:0;stroke-width:0.17817"
           id="path8707" /><path
           d="m 31.079937,144.99167 v -4.23334 h 1.776956 v 0.54354 h -1.003458 v 1.21774 h 0.789178 v 0.53831 h -0.789178 v 1.40066 h 1.01391 v 0.53309 z"
           style="font-style:normal;font-weight:500;font-size:5.22634px;line-height:1.25;font-family:Oswald;-inkscape-font-specification:'Oswald Medium';letter-spacing:-0.0926042px;fill:#ffffff;fill-opacity:0;stroke-width:0.17817"
           id="path8709" /><path
           d="m 32.957662,144.99167 0.851893,-2.24733 -0.825762,-1.98601 h 0.721235 l 0.548766,1.31181 0.480823,-1.31181 h 0.668972 l -0.815309,2.13235 0.878025,2.10099 H 34.74507 l -0.601029,-1.42157 -0.522634,1.42157 z"
           style="font-style:normal;font-weight:500;font-size:5.22634px;line-height:1.25;font-family:Oswald;-inkscape-font-specification:'Oswald Medium';letter-spacing:-0.0926042px;fill:#ffffff;fill-opacity:0;stroke-width:0.17817"
           id="path8711" /><path
           d="M 36.162879,144.99167 V 141.328 h -0.674197 v -0.56967 h 2.111441 v 0.56967 h -0.663745 v 3.66367 z"
           style="font-style:normal;font-weight:500;font-size:5.22634px;line-height:1.25;font-family:Oswald;-inkscape-font-specification:'Oswald Medium';letter-spacing:-0.0926042px;fill:#ffffff;fill-opacity:0;stroke-width:0.17817"
           id="path8713" /></g></g></g></svg>
