<?xml version="1.0" encoding="UTF-8" standalone="no"?>
<svg
   viewBox="0 0 8 8"
   version="1.1"
   id="svg536"
   sodipodi:docname="checked.svg"
   inkscape:version="1.2 (dc2aedaf03, 2022-05-15)"
   width="8"
   height="8"
   xmlns:inkscape="http://www.inkscape.org/namespaces/inkscape"
   xmlns:sodipodi="http://sodipodi.sourceforge.net/DTD/sodipodi-0.dtd"
   xmlns="http://www.w3.org/2000/svg"
   xmlns:svg="http://www.w3.org/2000/svg">
  <defs
     id="defs540" />
  <sodipodi:namedview
     id="namedview538"
     pagecolor="#505050"
     bordercolor="#eeeeee"
     borderopacity="1"
     inkscape:showpageshadow="0"
     inkscape:pageopacity="0"
     inkscape:pagecheckerboard="0"
     inkscape:deskcolor="#505050"
     showgrid="false"
     inkscape:zoom="128"
     inkscape:cx="7.1445312"
     inkscape:cy="5.171875"
     inkscape:current-layer="svg536" />
  <path
     style="fill:#ff55ff;stroke-width:0.016129;fill-opacity:1"
     d="M 6.261355,2.875275 5.600996,2.27448 C 5.525722,2.19859 5.4031735,2.19809 5.3272865,2.27338 L 3.3442905,4.769303 2.6455285,3.609593 C 2.5702535,3.533703 2.447706,3.533203 2.3718185,3.608393 L 1.739758,4.159427 C 1.663871,4.234697 1.663371,4.35725 1.738658,4.433153 l 1.46421,1.476065 c 0.075274,0.07589 0.1978225,0.07639 0.2737095,0.0011 L 6.2602745,3.149 c 0.075871,-0.07529 0.076354,-0.197838 0.00105,-0.273725 z"
     id="path12548"
     sodipodi:nodetypes="ccccccccccccc" />
  <path
     style="fill:#ffffff;stroke-width:0.016129"
     d="M 4,0 C 1.790855,0 0,1.790855 0,4 0,6.209145 1.790855,8 4,8 6.209145,8 8,6.209145 8,4 8,1.7908545 6.209145,0 4,0 Z M 4,0.7741935 C 5.7827745,0.7741935 7.2258065,2.216952 7.2258065,4 7.2258065,5.782775 5.7830485,7.225807 4,7.225807 2.217226,7.225806 0.7741935,5.783049 0.7741935,4 0.7741935,2.217226 2.2169515,0.7741935 4,0.7741935"
     id="path534" />
</svg>
