<?xml version="1.0" encoding="UTF-8" standalone="no"?>
<!-- Created with Inkscape (http://www.inkscape.org/) -->

<svg
   width="1920"
   height="1080"
   viewBox="0 0 507.99999 285.75"
   version="1.1"
   id="svg5"
   xml:space="preserve"
   inkscape:version="1.2 (dc2aedaf03, 2022-05-15)"
   sodipodi:docname="info_bar_text.svg"
   xmlns:inkscape="http://www.inkscape.org/namespaces/inkscape"
   xmlns:sodipodi="http://sodipodi.sourceforge.net/DTD/sodipodi-0.dtd"
   xmlns="http://www.w3.org/2000/svg"
   xmlns:svg="http://www.w3.org/2000/svg"><sodipodi:namedview
     id="namedview7"
     pagecolor="#505050"
     bordercolor="#eeeeee"
     borderopacity="1"
     inkscape:showpageshadow="0"
     inkscape:pageopacity="0"
     inkscape:pagecheckerboard="0"
     inkscape:deskcolor="#505050"
     inkscape:document-units="px"
     showgrid="false"
     showguides="true"
     inkscape:zoom="4"
     inkscape:cx="998.75"
     inkscape:cy="1004.75"
     inkscape:current-layer="g10837"><sodipodi:guide
       position="288.08192,16.782285"
       orientation="1,0"
       id="guide6532"
       inkscape:locked="false" /><sodipodi:guide
       position="256.35527,16.440087"
       orientation="1,0"
       id="guide6534"
       inkscape:locked="false" /><sodipodi:guide
       position="224.53084,16.83117"
       orientation="1,0"
       id="guide6536"
       inkscape:locked="false" /><sodipodi:guide
       position="192.80419,18.639932"
       orientation="1,0"
       id="guide6538"
       inkscape:locked="false" /><sodipodi:guide
       position="161.07754,16.635629"
       orientation="1,0"
       id="guide6540"
       inkscape:locked="false" /><sodipodi:guide
       position="166.22828,8.2975044"
       orientation="0,-1"
       id="guide6672"
       inkscape:locked="false" /><sodipodi:guide
       position="186.66772,28.643397"
       orientation="0,-1"
       id="guide6674"
       inkscape:locked="false" /><sodipodi:guide
       position="296.41276,13.477521"
       orientation="0,-1"
       id="guide9171"
       inkscape:locked="false" /><sodipodi:guide
       position="296.35722,16.435861"
       orientation="0,-1"
       id="guide9173"
       inkscape:locked="false" /></sodipodi:namedview><defs
     id="defs2" /><g
     inkscape:label="Layer 1"
     inkscape:groupmode="layer"
     id="layer1"><g
       id="g1428"
       transform="matrix(0.30479038,0,0,0.30479038,3.8856477,84.98238)"
       style="stroke-width:3.28094;stroke-dasharray:none"><g
         id="g1435"
         transform="matrix(1.9334828,0,0,1.9334828,-4.3861578,-113.27763)"><g
           id="g1456"
           transform="matrix(1.0443507,0,0,1.0443507,-0.64710571,-5.4330677)"><g
             id="g1463"
             transform="matrix(0.99957016,0,0,0.99957016,0.0062669,0.05265209)"><g
               id="g1524"
               transform="matrix(0.99997985,0,0,0.99997985,2.9379403e-4,0.00246842)"><g
                 id="g1531"
                 transform="matrix(0.26458331,0,0,0.26458331,10.721608,90.081756)"><g
                   id="g1538"
                   transform="matrix(0.44195059,0,0,0.44195059,7.5304017,67.750526)"><g
                     id="g1545"
                     transform="matrix(1.0001992,0,0,1.0001992,-152.79819,-1669.8257)"><g
                       id="g10837"
                       style="fill:#ffffff"><g
                         id="g8648"
                         transform="translate(0,22.064729)"><text
                           xml:space="preserve"
                           style="font-weight:300;font-size:56.7185px;line-height:1.25;font-family:Roboto;-inkscape-font-specification:'Roboto Light';letter-spacing:-2.57422px;stroke-width:12.0655"
                           x="2462.0796"
                           y="3831.6863"
                           id="text370"><tspan
                             sodipodi:role="line"
                             id="tspan368"
                             style="stroke-width:12.0655"
                             x="2462.0796"
                             y="3831.6863" /></text><g
                           aria-label="REGION"
                           id="text366"
                           style="font-weight:300;font-size:57.0307px;line-height:1.25;font-family:Roboto;-inkscape-font-specification:'Roboto Light';letter-spacing:-2.58839px;stroke:#ffffff;stroke-width:0.735491;stroke-dasharray:none;stroke-opacity:1"
                           transform="translate(-147.39509)"><path
                             d="m 2325.5535,3855.7773 h -11.7793 v 16.8753 h -3.453 v -40.5453 h 13.1716 q 6.4884,0 10.1363,3.1467 3.648,3.1468 3.648,8.7997 0,3.8986 -2.2835,6.8782 -2.2834,2.9796 -6.1263,4.1214 l 10.1363,17.2373 v 0.362 h -3.648 z m -11.7793,-2.9239 h 10.4983 q 4.3163,0 6.9339,-2.4506 2.6176,-2.4505 2.6176,-6.3491 0,-4.2884 -2.729,-6.6554 -2.729,-2.367 -7.6579,-2.367 h -9.6629 z"
                             id="path3203"
                             style="stroke:#ffffff;stroke-width:0.735491;stroke-dasharray:none;stroke-opacity:1" /><path
                             d="m 2366.4064,3853.2154 h -18.9638 v 16.5411 h 21.8042 v 2.8961 h -25.2294 v -40.5453 h 25.0902 v 2.924 h -21.665 v 15.288 h 18.9638 z"
                             id="path3205"
                             style="stroke:#ffffff;stroke-width:0.735491;stroke-dasharray:none;stroke-opacity:1" /><path
                             d="m 2403.1381,3867.8351 q -1.7823,2.534 -5.5973,3.9542 -3.7872,1.4202 -8.4933,1.4202 -4.7619,0 -8.4655,-2.2834 -3.7037,-2.2835 -5.7365,-6.4605 -2.0329,-4.1771 -2.0607,-9.5794 v -5.1239 q 0,-8.4376 4.2606,-13.3108 4.2606,-4.9011 11.4451,-4.9011 6.2656,0 10.0806,3.2024 3.8151,3.1746 4.5391,8.7718 h -3.4252 q -0.7519,-4.4555 -3.6479,-6.739 -2.8683,-2.3113 -7.5187,-2.3113 -5.6808,0 -8.9946,4.0378 -3.3138,4.0379 -3.3138,11.3895 v 4.7897 q 0,4.6226 1.5594,8.187 1.5873,3.5366 4.5112,5.4858 2.9518,1.9493 6.7669,1.9493 4.4276,0 7.6022,-1.3923 2.0607,-0.919 3.0632,-2.1442 v -10.4705 h -10.8882 v -2.8961 h 14.3134 z"
                             id="path3207"
                             style="stroke:#ffffff;stroke-width:0.735491;stroke-dasharray:none;stroke-opacity:1" /><path
                             d="m 2414.4453,3872.6526 h -3.4252 v -40.5453 h 3.4252 z"
                             id="path3209"
                             style="stroke:#ffffff;stroke-width:0.735491;stroke-dasharray:none;stroke-opacity:1" /><path
                             d="m 2452.8199,3854.5799 q 0,5.5972 -1.9493,9.83 -1.9214,4.2327 -5.5137,6.5162 -3.5923,2.2834 -8.2984,2.2834 -7.101,0 -11.473,-5.0681 -4.372,-5.096 -4.372,-13.7286 v -4.1771 q 0,-5.5415 1.9493,-9.8021 1.9772,-4.2885 5.5694,-6.5719 3.5923,-2.3113 8.2706,-2.3113 4.6783,0 8.2427,2.2556 3.5923,2.2556 5.5416,6.377 1.9493,4.1213 2.0328,9.5515 z m -3.4252,-4.3999 q 0,-7.3237 -3.3138,-11.4729 -3.3138,-4.1492 -9.0781,-4.1492 -5.6529,0 -9.0224,4.177 -3.3417,4.1492 -3.3417,11.6122 v 4.2328 q 0,7.2123 3.3417,11.4451 3.3416,4.2049 9.0781,4.2049 5.82,0 9.0781,-4.1492 3.2581,-4.1771 3.2581,-11.6122 z"
                             id="path3211"
                             style="stroke:#ffffff;stroke-width:0.735491;stroke-dasharray:none;stroke-opacity:1" /><path
                             d="m 2489.0503,3872.6526 h -3.4252 l -23.308,-34.6974 v 34.6974 h -3.453 v -40.5453 h 3.453 l 23.3358,34.7253 v -34.7253 h 3.3974 z"
                             id="path3213"
                             style="stroke:#ffffff;stroke-width:0.735491;stroke-dasharray:none;stroke-opacity:1" /></g><g
                           aria-label="RELEASED"
                           id="text374"
                           style="font-weight:300;font-size:56.7185px;line-height:1.25;font-family:Roboto;-inkscape-font-specification:'Roboto Light';letter-spacing:-2.57422px;stroke:#ffffff;stroke-width:0.735491;stroke-dasharray:none;stroke-opacity:1"
                           transform="translate(-98.527017)"><path
                             d="m 2685.6592,3856.2876 h -11.7148 v 16.783 h -3.4341 v -40.3234 h 13.0995 q 6.4529,0 10.0808,3.1295 3.628,3.1295 3.628,8.7515 0,3.8773 -2.2709,6.8406 -2.271,2.9633 -6.0928,4.0988 l 10.0808,17.1429 v 0.3601 h -3.628 z m -11.7148,-2.9079 h 10.4409 q 4.2926,0 6.8959,-2.4371 2.6033,-2.4371 2.6033,-6.3144 0,-4.2649 -2.7141,-6.619 -2.714,-2.354 -7.616,-2.354 h -9.61 z"
                             id="path3186"
                             style="stroke:#ffffff;stroke-width:0.735491;stroke-dasharray:none;stroke-opacity:1" /><path
                             d="m 2726.2885,3853.7397 h -18.86 v 16.4506 h 21.6849 v 2.8803 h -25.0913 v -40.3234 h 24.9528 v 2.908 h -21.5464 v 15.2043 h 18.86 z"
                             id="path3188"
                             style="stroke:#ffffff;stroke-width:0.735491;stroke-dasharray:none;stroke-opacity:1" /><path
                             d="m 2737.1462,3870.1903 h 19.9124 v 2.8803 h -23.3465 v -40.3234 h 3.4341 z"
                             id="path3190"
                             style="stroke:#ffffff;stroke-width:0.735491;stroke-dasharray:none;stroke-opacity:1" /><path
                             d="m 2783.2867,3853.7397 h -18.86 v 16.4506 h 21.6849 v 2.8803 h -25.0913 v -40.3234 h 24.9528 v 2.908 h -21.5464 v 15.2043 h 18.86 z"
                             id="path3192"
                             style="stroke:#ffffff;stroke-width:0.735491;stroke-dasharray:none;stroke-opacity:1" /><path
                             d="m 2812.4782,3861.7712 h -18.3061 l -4.1542,11.2994 h -3.5726 l 15.2597,-40.3234 h 3.2403 l 15.2597,40.3234 h -3.5449 z m -17.2537,-2.908 h 16.1736 l -8.0868,-21.9618 z"
                             id="path3194"
                             style="stroke:#ffffff;stroke-width:0.735491;stroke-dasharray:none;stroke-opacity:1" /><path
                             d="m 2846.3777,3863.1559 q 0,-3.351 -2.354,-5.2897 -2.354,-1.9663 -8.613,-3.711 -6.259,-1.7725 -9.1392,-3.8496 -4.0988,-2.9356 -4.0988,-7.6991 0,-4.625 3.7941,-7.5052 3.8219,-2.9079 9.7485,-2.9079 4.0157,0 7.1729,1.5509 3.1849,1.5509 4.9296,4.3203 1.7448,2.7695 1.7448,6.1759 h -3.4341 q 0,-4.1265 -2.8249,-6.619 -2.8248,-2.5202 -7.5883,-2.5202 -4.625,0 -7.3667,2.0771 -2.7418,2.0494 -2.7418,5.3727 0,3.0741 2.4648,5.0127 2.4648,1.9387 7.893,3.4342 5.4281,1.4678 8.2253,3.0741 2.7971,1.5786 4.2095,3.7941 1.4125,2.2156 1.4125,5.2343 0,4.7635 -3.8219,7.6437 -3.7942,2.8802 -10.0254,2.8802 -4.265,0 -7.8376,-1.5232 -3.5449,-1.5232 -5.4004,-4.2649 -1.8279,-2.7418 -1.8279,-6.2867 h 3.4064 q 0,4.265 3.1849,6.7298 3.1849,2.4648 8.4746,2.4648 4.708,0 7.5606,-2.0771 2.8525,-2.0771 2.8525,-5.5112 z"
                             id="path3196"
                             style="stroke:#ffffff;stroke-width:0.735491;stroke-dasharray:none;stroke-opacity:1" /><path
                             d="m 2876.8431,3853.7397 h -18.86 v 16.4506 h 21.6849 v 2.8803 h -25.0913 v -40.3234 h 24.9528 v 2.908 h -21.5464 v 15.2043 h 18.86 z"
                             id="path3198"
                             style="stroke:#ffffff;stroke-width:0.735491;stroke-dasharray:none;stroke-opacity:1" /><path
                             d="m 2884.2667,3873.0706 v -40.3234 h 11.2717 q 4.9573,0 8.8899,2.271 3.9327,2.2433 6.1205,6.4528 2.2156,4.2096 2.2156,9.5824 v 3.711 q 0,5.4005 -2.1879,9.5824 -2.1879,4.1818 -6.1759,6.4528 -3.9603,2.271 -9.1115,2.271 z m 3.4064,-37.4154 v 34.5351 h 7.6437 q 6.3698,0 10.2193,-4.2096 3.8496,-4.2372 3.8496,-11.4378 v -3.5449 q 0,-6.9514 -3.7942,-11.1332 -3.7942,-4.1819 -9.9977,-4.2096 z"
                             id="path3200"
                             style="stroke:#ffffff;stroke-width:0.735491;stroke-dasharray:none;stroke-opacity:1" /></g><g
                           aria-label="PLAYERS"
                           id="text378"
                           style="font-weight:300;font-size:56.7185px;line-height:1.25;font-family:Roboto;-inkscape-font-specification:'Roboto Light';letter-spacing:-2.57422px;stroke:#ffffff;stroke-width:0.735491;stroke-dasharray:none;stroke-opacity:1"
                           transform="translate(49.278922)"><g
                             id="g12088"><path
                               d="m 2982.574,3856.8078 v 16.4229 h -3.4064 v -40.3233 h 13.7365 q 6.2867,0 9.9147,3.2126 3.6556,3.2125 3.6556,8.8345 0,5.6774 -3.5172,8.7792 -3.4895,3.0741 -10.1362,3.0741 z m 0,-2.8802 h 10.3301 q 4.9573,0 7.5606,-2.354 2.6033,-2.3541 2.6033,-6.5637 0,-4.1818 -2.6033,-6.6467 -2.5756,-2.4925 -7.3391,-2.5479 h -10.5516 z"
                               id="path3171"
                               style="stroke:#ffffff;stroke-width:0.735491;stroke-dasharray:none;stroke-opacity:1" /><path
                               d="m 3014.9504,3870.3505 h 19.9124 v 2.8802 h -23.3466 v -40.3233 h 3.4342 z"
                               id="path3173"
                               style="stroke:#ffffff;stroke-width:0.735491;stroke-dasharray:none;stroke-opacity:1" /><path
                               d="m 3061.1186,3861.9313 h -18.3061 l -4.1542,11.2994 h -3.5726 l 15.2597,-40.3233 h 3.2403 l 15.2597,40.3233 h -3.5449 z m -17.2537,-2.9079 h 16.1736 l -8.0868,-21.9618 z"
                               id="path3175"
                               style="stroke:#ffffff;stroke-width:0.735491;stroke-dasharray:none;stroke-opacity:1" /><path
                               d="m 3081.4201,3854.8969 12.3241,-21.9895 h 3.9326 l -14.5673,25.1467 v 15.1766 h -3.4065 v -15.1766 l -14.5396,-25.1467 h 4.0434 z"
                               id="path3177"
                               style="stroke:#ffffff;stroke-width:0.735491;stroke-dasharray:none;stroke-opacity:1" /><path
                               d="m 3123.2403,3853.8999 h -18.86 v 16.4506 h 21.6848 v 2.8802 h -25.0913 v -40.3233 h 24.9529 v 2.9079 h -21.5464 v 15.2044 h 18.86 z"
                               id="path3179"
                               style="stroke:#ffffff;stroke-width:0.735491;stroke-dasharray:none;stroke-opacity:1" /><path
                               d="m 3145.7296,3856.4478 h -11.7148 v 16.7829 h -3.4341 v -40.3233 h 13.0995 q 6.4529,0 10.0809,3.1295 3.628,3.1295 3.628,8.7515 0,3.8772 -2.271,6.8405 -2.2709,2.9634 -6.0928,4.0988 l 10.0808,17.143 v 0.36 h -3.628 z m -11.7148,-2.9079 h 10.4409 q 4.2927,0 6.8959,-2.4372 2.6033,-2.4371 2.6033,-6.3143 0,-4.265 -2.714,-6.619 -2.7141,-2.3541 -7.616,-2.3541 h -9.6101 z"
                               id="path3181"
                               style="stroke:#ffffff;stroke-width:0.735491;stroke-dasharray:none;stroke-opacity:1" /><path
                               d="m 3186.9129,3863.3161 q 0,-3.3511 -2.3541,-5.2897 -2.354,-1.9663 -8.613,-3.7111 -6.259,-1.7724 -9.1392,-3.8495 -4.0988,-2.9357 -4.0988,-7.6991 0,-4.625 3.7942,-7.5053 3.8218,-2.9079 9.7485,-2.9079 4.0157,0 7.1729,1.5509 3.1848,1.5509 4.9296,4.3204 1.7447,2.7694 1.7447,6.1759 h -3.4341 q 0,-4.1265 -2.8248,-6.619 -2.8249,-2.5203 -7.5883,-2.5203 -4.625,0 -7.3668,2.0771 -2.7418,2.0494 -2.7418,5.3728 0,3.0741 2.4649,5.0127 2.4648,1.9386 7.8929,3.4341 5.4281,1.4678 8.2253,3.0741 2.7972,1.5786 4.2096,3.7942 1.4124,2.2156 1.4124,5.2343 0,4.7634 -3.8219,7.6437 -3.7941,2.8802 -10.0254,2.8802 -4.265,0 -7.8376,-1.5232 -3.5449,-1.5232 -5.4004,-4.265 -1.8278,-2.7417 -1.8278,-6.2866 h 3.4064 q 0,4.2649 3.1849,6.7298 3.1848,2.4648 8.4745,2.4648 4.7081,0 7.5606,-2.0771 2.8526,-2.0771 2.8526,-5.5112 z"
                               id="path3183"
                               style="stroke:#ffffff;stroke-width:0.735491;stroke-dasharray:none;stroke-opacity:1" /></g></g><g
                           aria-label="MANUAL"
                           id="text382"
                           style="font-weight:300;font-size:56.7185px;line-height:1.25;font-family:Roboto;-inkscape-font-specification:'Roboto Light';letter-spacing:-2.57422px;stroke:#ffffff;stroke-width:0.735491;stroke-dasharray:none;stroke-opacity:1"
                           transform="translate(210.21724)"><path
                             d="m 3266.8656,3832.3522 14.872,35.5876 14.9274,-35.5876 h 4.5419 v 40.3233 h -3.4064 v -17.5583 l 0.2769,-18.0015 -15.0104,35.5598 h -2.631 l -14.9551,-35.4213 0.277,17.7522 v 17.6691 h -3.4065 v -40.3233 z"
                             id="path3158"
                             style="stroke:#ffffff;stroke-width:0.735491;stroke-dasharray:none;stroke-opacity:1" /><path
                             d="m 3331.1184,3861.3761 h -18.3061 l -4.1542,11.2994 h -3.5726 l 15.2597,-40.3233 h 3.2403 l 15.2597,40.3233 h -3.5449 z m -17.2537,-2.9079 h 16.1736 l -8.0868,-21.9618 z"
                             id="path3160"
                             style="stroke:#ffffff;stroke-width:0.735491;stroke-dasharray:none;stroke-opacity:1" /><path
                             d="m 3372.2186,3872.6755 h -3.4065 l -23.1803,-34.5074 v 34.5074 h -3.4342 v -40.3233 h 3.4342 l 23.208,34.5352 v -34.5352 h 3.3788 z"
                             id="path3162"
                             style="stroke:#ffffff;stroke-width:0.735491;stroke-dasharray:none;stroke-opacity:1" /><path
                             d="m 3407.669,3832.3522 v 27.5284 q -0.028,4.0711 -1.8001,7.0899 -1.7725,3.0187 -5.0128,4.6526 -3.2125,1.6063 -7.3944,1.6063 -6.3698,0 -10.2193,-3.4618 -3.8219,-3.4895 -3.9603,-9.6377 v -27.7777 h 3.3787 v 27.2792 q 0,5.0958 2.9079,7.9206 2.908,2.7972 7.893,2.7972 4.985,0 7.8652,-2.8249 2.908,-2.8248 2.908,-7.8652 v -27.3069 z"
                             id="path3164"
                             style="stroke:#ffffff;stroke-width:0.735491;stroke-dasharray:none;stroke-opacity:1" /><path
                             d="m 3435.7527,3861.3761 h -18.3061 l -4.1542,11.2994 h -3.5726 l 15.2597,-40.3233 h 3.2402 l 15.2598,40.3233 h -3.5449 z m -17.2537,-2.9079 h 16.1736 l -8.0868,-21.9618 z"
                             id="path3166"
                             style="stroke:#ffffff;stroke-width:0.735491;stroke-dasharray:none;stroke-opacity:1" /><path
                             d="m 3450.266,3869.7953 h 19.9124 v 2.8802 h -23.3465 v -40.3233 h 3.4341 z"
                             id="path3168"
                             style="stroke:#ffffff;stroke-width:0.735491;stroke-dasharray:none;stroke-opacity:1" /></g><g
                           aria-label="SAVE STATE"
                           id="text386"
                           style="font-weight:300;font-size:56.7185px;line-height:1.25;font-family:Roboto;-inkscape-font-specification:'Roboto Light';letter-spacing:-2.57422px;stroke:#ffffff;stroke-width:0.735491;stroke-dasharray:none;stroke-opacity:1"
                           transform="translate(345.80776)"><path
                             d="m 3555.7926,3862.7516 q 0,-3.351 -2.354,-5.2897 -2.3541,-1.9663 -8.6131,-3.711 -6.2589,-1.7725 -9.1392,-3.8496 -4.0988,-2.9356 -4.0988,-7.6991 0,-4.625 3.7942,-7.5052 3.8218,-2.9079 9.7485,-2.9079 4.0157,0 7.1729,1.5509 3.1849,1.5509 4.9296,4.3203 1.7448,2.7695 1.7448,6.1759 h -3.4342 q 0,-4.1265 -2.8248,-6.619 -2.8248,-2.5202 -7.5883,-2.5202 -4.625,0 -7.3668,2.0771 -2.7417,2.0494 -2.7417,5.3727 0,3.0741 2.4648,5.0128 2.4648,1.9386 7.8929,3.4341 5.4282,1.4678 8.2253,3.0741 2.7972,1.5786 4.2096,3.7941 1.4124,2.2156 1.4124,5.2343 0,4.7635 -3.8218,7.6437 -3.7942,2.8803 -10.0255,2.8803 -4.2649,0 -7.8375,-1.5233 -3.5449,-1.5232 -5.4005,-4.2649 -1.8278,-2.7418 -1.8278,-6.2867 h 3.4064 q 0,4.265 3.1849,6.7298 3.1849,2.4648 8.4745,2.4648 4.7081,0 7.5607,-2.0771 2.8525,-2.0771 2.8525,-5.5112 z"
                             id="path3139"
                             style="stroke:#ffffff;stroke-width:0.735491;stroke-dasharray:none;stroke-opacity:1" /><path
                             d="m 3585.7595,3861.3669 h -18.3061 l -4.1542,11.2994 h -3.5726 l 15.2597,-40.3233 h 3.2403 l 15.2597,40.3233 h -3.5449 z m -17.2537,-2.908 h 16.1736 l -8.0868,-21.9618 z"
                             id="path3141"
                             style="stroke:#ffffff;stroke-width:0.735491;stroke-dasharray:none;stroke-opacity:1" /><path
                             d="m 3606.5872,3867.6812 0.2216,0.8586 0.2492,-0.8586 12.6841,-35.3382 h 3.7388 l -15.0105,40.3233 h -3.2679 l -15.0105,-40.3233 h 3.7111 z"
                             id="path3143"
                             style="stroke:#ffffff;stroke-width:0.735491;stroke-dasharray:none;stroke-opacity:1" /><path
                             d="m 3649.0998,3853.3354 h -18.86 v 16.4506 h 21.6848 v 2.8803 h -25.0913 v -40.3233 h 24.9528 v 2.9079 h -21.5463 v 15.2043 h 18.86 z"
                             id="path3145"
                             style="stroke:#ffffff;stroke-width:0.735491;stroke-dasharray:none;stroke-opacity:1" /><path
                             d="m 3690.5613,3862.7516 q 0,-3.351 -2.354,-5.2897 -2.3541,-1.9663 -8.613,-3.711 -6.259,-1.7725 -9.1393,-3.8496 -4.0988,-2.9356 -4.0988,-7.6991 0,-4.625 3.7942,-7.5052 3.8219,-2.9079 9.7485,-2.9079 4.0157,0 7.1729,1.5509 3.1849,1.5509 4.9296,4.3203 1.7448,2.7695 1.7448,6.1759 h -3.4341 q 0,-4.1265 -2.8249,-6.619 -2.8248,-2.5202 -7.5883,-2.5202 -4.625,0 -7.3668,2.0771 -2.7417,2.0494 -2.7417,5.3727 0,3.0741 2.4648,5.0128 2.4648,1.9386 7.8929,3.4341 5.4282,1.4678 8.2253,3.0741 2.7972,1.5786 4.2096,3.7941 1.4124,2.2156 1.4124,5.2343 0,4.7635 -3.8218,7.6437 -3.7942,2.8803 -10.0255,2.8803 -4.2649,0 -7.8375,-1.5233 -3.5449,-1.5232 -5.4005,-4.2649 -1.8278,-2.7418 -1.8278,-6.2867 h 3.4064 q 0,4.265 3.1849,6.7298 3.1849,2.4648 8.4745,2.4648 4.7081,0 7.5607,-2.0771 2.8525,-2.0771 2.8525,-5.5112 z"
                             id="path3147"
                             style="stroke:#ffffff;stroke-width:0.735491;stroke-dasharray:none;stroke-opacity:1" /><path
                             d="m 3726.1225,3835.2509 h -13.8196 v 37.4154 h -3.4064 v -37.4154 h -13.7919 v -2.9079 h 31.0179 z"
                             id="path3149"
                             style="stroke:#ffffff;stroke-width:0.735491;stroke-dasharray:none;stroke-opacity:1" /><path
                             d="m 3749.6366,3861.3669 h -18.3061 l -4.1542,11.2994 h -3.5726 l 15.2597,-40.3233 h 3.2403 l 15.2597,40.3233 h -3.5449 z m -17.2537,-2.908 h 16.1736 l -8.0868,-21.9618 z"
                             id="path3151"
                             style="stroke:#ffffff;stroke-width:0.735491;stroke-dasharray:none;stroke-opacity:1" /><path
                             d="m 3784.5054,3835.2509 h -13.8196 v 37.4154 h -3.4064 v -37.4154 h -13.7919 v -2.9079 h 31.0179 z"
                             id="path3153"
                             style="stroke:#ffffff;stroke-width:0.735491;stroke-dasharray:none;stroke-opacity:1" /><path
                             d="m 3810.7059,3853.3354 h -18.86 v 16.4506 h 21.6848 v 2.8803 h -25.0913 v -40.3233 h 24.9529 v 2.9079 h -21.5464 v 15.2043 h 18.86 z"
                             id="path3155"
                             style="stroke:#ffffff;stroke-width:0.735491;stroke-dasharray:none;stroke-opacity:1" /></g><g
                           aria-label="PLAYER RATING"
                           id="text8393"
                           style="font-weight:300;font-size:57.8198px;line-height:1.25;font-family:Roboto;-inkscape-font-specification:'Roboto Light';letter-spacing:-2.6242px;stroke-width:12.2998"><path
                             d="m 4460.1248,3856.2917 v 16.7417 h -3.4725 v -41.1062 h 14.0032 q 6.4087,0 10.1072,3.2749 3.7266,3.275 3.7266,9.0061 0,5.7877 -3.5855,8.9497 -3.5572,3.1338 -10.333,3.1338 z m 0,-2.9362 h 10.5307 q 5.0536,0 7.7074,-2.3997 2.6539,-2.3998 2.6539,-6.6911 0,-4.2631 -2.6539,-6.7757 -2.6256,-2.541 -7.4815,-2.5974 h -10.7566 z"
                             id="path10809" /><path
                             d="m 4493.1298,3870.0973 h 20.2991 v 2.9361 h -23.7999 v -41.1062 h 3.5008 z"
                             id="path10811" /><path
                             d="m 4540.1945,3861.5147 h -18.6615 l -4.2349,11.5187 h -3.642 l 15.5561,-41.1062 h 3.3031 l 15.556,41.1062 h -3.6137 z m -17.5887,-2.9644 h 16.4877 l -8.2439,-22.3883 z"
                             id="path10813" /><path
                             d="m 4560.8902,3854.3436 12.5634,-22.4164 h 4.009 l -14.8502,25.6349 v 15.4713 h -3.4726 v -15.4713 l -14.822,-25.6349 h 4.122 z"
                             id="path10815" /><path
                             d="m 4603.5224,3853.3273 h -19.2262 v 16.77 h 22.1059 v 2.9361 h -25.5784 v -41.1062 h 25.4373 v 2.9644 h -21.9648 v 15.4995 h 19.2262 z"
                             id="path10817" /><path
                             d="m 4626.4485,3855.9247 h -11.9423 v 17.1087 h -3.5008 v -41.1062 h 13.3539 q 6.5781,0 10.2766,3.1902 3.6984,3.1903 3.6984,8.9214 0,3.9526 -2.315,6.9734 -2.3151,3.0209 -6.2112,4.1784 l 10.2766,17.4758 v 0.367 h -3.6984 z m -11.9423,-2.9644 h 10.6436 q 4.376,0 7.0299,-2.4845 2.6538,-2.4844 2.6538,-6.437 0,-4.3477 -2.7668,-6.7475 -2.7667,-2.3997 -7.7639,-2.3997 h -9.7966 z"
                             id="path10819" /><path
                             d="m 4671.9618,3855.9247 h -11.9422 v 17.1087 h -3.5009 v -41.1062 h 13.3539 q 6.5782,0 10.2766,3.1902 3.6984,3.1903 3.6984,8.9214 0,3.9526 -2.315,6.9734 -2.3151,3.0209 -6.2111,4.1784 l 10.2765,17.4758 v 0.367 h -3.6984 z m -11.9422,-2.9644 h 10.6435 q 4.376,0 7.0299,-2.4845 2.6538,-2.4844 2.6538,-6.437 0,-4.3477 -2.7667,-6.7475 -2.7668,-2.3997 -7.7639,-2.3997 h -9.7966 z"
                             id="path10821" /><path
                             d="m 4712.8719,3861.5147 h -18.6616 l -4.2348,11.5187 h -3.642 l 15.556,-41.1062 h 3.3032 l 15.556,41.1062 h -3.6138 z m -17.5888,-2.9644 h 16.4877 l -8.2438,-22.3883 z"
                             id="path10823" /><path
                             d="m 4748.4178,3834.8916 h -14.088 v 38.1418 h -3.4726 v -38.1418 h -14.0597 v -2.9644 h 31.6203 z"
                             id="path10825" /><path
                             d="m 4756.663,3873.0334 h -3.4726 v -41.1062 h 3.4726 z"
                             id="path10827" /><path
                             d="m 4795.7944,3873.0334 h -3.4726 l -23.6304,-35.1774 v 35.1774 h -3.5008 v -41.1062 h 3.5008 l 23.6587,35.2057 v -35.2057 h 3.4443 z"
                             id="path10829" /><path
                             d="m 4833.2884,3868.1493 q -1.8069,2.5691 -5.6747,4.0089 -3.8396,1.4399 -8.6109,1.4399 -4.8277,0 -8.5826,-2.3151 -3.7549,-2.315 -5.8159,-6.5499 -2.0609,-4.2348 -2.0892,-9.7119 v -5.1947 q 0,-8.5544 4.3196,-13.4951 4.3195,-4.9689 11.6035,-4.9689 6.3522,0 10.2201,3.2468 3.8678,3.2184 4.6018,8.8931 h -3.4725 q -0.7623,-4.5171 -3.6985,-6.8322 -2.9079,-2.3433 -7.6227,-2.3433 -5.7594,0 -9.119,4.0937 -3.3597,4.0937 -3.3597,11.547 v 4.856 q 0,4.6866 1.581,8.3003 1.6093,3.5855 4.5737,5.5618 2.9926,1.9762 6.8604,1.9762 4.489,0 7.7074,-1.4116 2.0892,-0.9317 3.1056,-2.1739 v -10.6153 h -11.0388 v -2.9362 h 14.5114 z"
                             id="path10831" /></g></g></g><g
                       id="g2741"
                       transform="matrix(1.4087961,0,0,1.4087961,3014.9738,3577.467)"
                       style="fill:#000000;stroke:#000000" /></g></g></g></g></g></g></g></g></g></svg>
