<?xml version="1.0" encoding="UTF-8" standalone="no"?>
<!-- Created with Inkscape (http://www.inkscape.org/) -->

<svg
   width="1920"
   height="1080"
   viewBox="0 0 507.99999 285.75"
   version="1.1"
   id="svg5"
   xml:space="preserve"
   inkscape:version="1.2 (dc2aedaf03, 2022-05-15)"
   sodipodi:docname="info_bar_accent.svg"
   xmlns:inkscape="http://www.inkscape.org/namespaces/inkscape"
   xmlns:sodipodi="http://sodipodi.sourceforge.net/DTD/sodipodi-0.dtd"
   xmlns="http://www.w3.org/2000/svg"
   xmlns:svg="http://www.w3.org/2000/svg"><sodipodi:namedview
     id="namedview7"
     pagecolor="#505050"
     bordercolor="#000000"
     borderopacity="0.6"
     inkscape:showpageshadow="true"
     inkscape:pageopacity="0"
     inkscape:pagecheckerboard="true"
     inkscape:deskcolor="#505050"
     inkscape:document-units="px"
     showgrid="false"
     showguides="true"
     inkscape:zoom="2"
     inkscape:cx="896.75"
     inkscape:cy="996"
     inkscape:current-layer="g1545"><sodipodi:guide
       position="0,104.46081"
       orientation="1,0"
       id="guide3785"
       inkscape:locked="false" /><sodipodi:guide
       position="14.546144,217.55618"
       orientation="1,0"
       id="guide6271"
       inkscape:locked="false" /><sodipodi:guide
       position="-0.019637044,17.996834"
       orientation="0,-1"
       id="guide6339"
       inkscape:locked="false" /><sodipodi:guide
       position="508,40.745834"
       orientation="-1,0"
       id="guide6343"
       inkscape:locked="false"
       inkscape:label=""
       inkscape:color="rgb(0,134,229)" /></sodipodi:namedview><defs
     id="defs2" /><g
     inkscape:label="Layer 1"
     inkscape:groupmode="layer"
     id="layer1"><g
       id="g1428"
       transform="matrix(0.30479038,0,0,0.30479038,3.8856477,84.98238)"
       style="stroke-width:3.28094;stroke-dasharray:none"><g
         id="g1435"
         transform="matrix(1.9334828,0,0,1.9334828,-4.3861578,-113.27763)"><g
           id="g1456"
           transform="matrix(1.0443507,0,0,1.0443507,-0.64710571,-5.4330677)"><g
             id="g1463"
             transform="matrix(0.99957016,0,0,0.99957016,0.0062669,0.05265209)"><g
               id="g1524"
               transform="matrix(0.99997985,0,0,0.99997985,2.9379403e-4,0.00246842)"><g
                 id="g1531"
                 transform="matrix(0.26458331,0,0,0.26458331,10.721608,90.081756)"><g
                   id="g1538"
                   transform="matrix(0.44195059,0,0,0.44195059,7.5304017,67.750526)"><g
                     id="g1545"
                     transform="matrix(1.0001992,0,0,1.0001992,-152.79819,-1669.8257)"><g
                       id="g2741"
                       transform="matrix(1.4087961,0,0,1.4087961,3014.9738,3577.467)"
                       style="fill:#000000;stroke:#000000" /><path
                       id="path6347"
                       style="fill:#ffffff;stroke:none;stroke-width:3.67745px;stroke-linecap:butt;stroke-linejoin:miter;stroke-opacity:1"
                       d="m 2398.3345,3564.3866 c -465.4914,0 -583.6617,312.5981 -835.9243,312.5981 H 13.885675 l 0.02155,14.6954 H 1624.144 c 253.5426,0 373.9232,-230.1498 844.5362,-230.1498 719.4907,0 1438.9813,0 2158.472,0 470.613,0 590.9936,230.1498 844.5362,230.1498 h 1610.2368 l 0.022,-14.6954 H 5533.415 c -252.2625,0 -370.4257,-312.5981 -835.9171,-312.5981 -766.3878,0 -1532.7756,0 -2299.1634,0 z"
                       sodipodi:nodetypes="csccsccsccscc" /></g></g></g></g></g></g></g></g></g></svg>
