<?xml version="1.0" encoding="UTF-8" standalone="no"?>
<!-- Created with Inkscape (http://www.inkscape.org/) -->

<svg
   width="16"
   height="16"
   viewBox="0 0 4.2333333 4.2333333"
   version="1.1"
   id="svg28968"
   xml:space="preserve"
   inkscape:version="1.2 (dc2aedaf03, 2022-05-15)"
   sodipodi:docname="gamepad.svg"
   xmlns:inkscape="http://www.inkscape.org/namespaces/inkscape"
   xmlns:sodipodi="http://sodipodi.sourceforge.net/DTD/sodipodi-0.dtd"
   xmlns="http://www.w3.org/2000/svg"
   xmlns:svg="http://www.w3.org/2000/svg"><sodipodi:namedview
     id="namedview28970"
     pagecolor="#505050"
     bordercolor="#eeeeee"
     borderopacity="1"
     inkscape:showpageshadow="0"
     inkscape:pageopacity="0"
     inkscape:pagecheckerboard="0"
     inkscape:deskcolor="#505050"
     inkscape:document-units="px"
     showgrid="false"
     inkscape:zoom="20.70196"
     inkscape:cx="-3.8402162"
     inkscape:cy="9.9990535"
     inkscape:current-layer="layer1" /><defs
     id="defs28965" /><g
     inkscape:label="Layer 1"
     inkscape:groupmode="layer"
     id="layer1"><g
       id="g307"
       transform="matrix(0.75825344,0,0,0.75825344,0.51169688,-1.0932729)"><g
         id="g29754"
         transform="matrix(0.02611687,0,0,0.02611687,-0.517366,1.2650859)"
         style="fill:#ffffff"><path
           id="rect29263"
           style="fill:#ffffff;stroke:none;stroke-width:0.790072;stroke-linecap:round;stroke-linejoin:round;paint-order:fill markers stroke"
           d="m 22.556763,80.250916 c -1.522015,0 -2.747119,1.225104 -2.747119,2.747119 v 61.308915 c 0,1.52202 1.225104,2.74712 2.747119,2.74712 H 179.15444 c 1.52201,0 2.74712,-1.2251 2.74712,-2.74712 V 82.998035 c 0,-1.522015 -1.22511,-2.747119 -2.74712,-2.747119 z M 23.88278,91.406824 H 177.82842 V 142.93805 H 23.88278 Z" /><path
           id="rect29040"
           style="fill:#ffffff;stroke:none;stroke-width:0.889719;stroke-linecap:round;stroke-linejoin:round;paint-order:fill markers stroke"
           d="m 44.159578,104.69852 c -1.188359,0 -2.145088,0.95673 -2.145088,2.14509 v 8.07134 h -8.071342 c -1.188359,0 -2.145089,0.95673 -2.145089,2.14509 v 5.33714 c 0,1.18836 0.95673,2.14509 2.145089,2.14509 h 8.071342 v 8.07134 c 0,1.18836 0.956729,2.14509 2.145088,2.14509 h 5.337142 c 1.18836,0 2.145089,-0.95673 2.145089,-2.14509 v -8.07134 h 8.071342 c 1.188359,0 2.145089,-0.95673 2.145089,-2.14509 v -5.33714 c 0,-1.18836 -0.95673,-2.14509 -2.145089,-2.14509 h -8.071342 v -8.07134 c 0,-1.18836 -0.956729,-2.14509 -2.145089,-2.14509 z" /><circle
           style="fill:#ffffff;stroke:none;stroke-width:0.793485;stroke-linecap:round;stroke-linejoin:round;paint-order:fill markers stroke"
           id="path29153"
           cx="133.71057"
           cy="127.21803"
           r="8.5118752" /><circle
           style="fill:#ffffff;stroke:none;stroke-width:0.793485;stroke-linecap:round;stroke-linejoin:round;paint-order:fill markers stroke"
           id="circle29155"
           cx="154.6545"
           cy="127.21803"
           r="8.5118752" /></g><rect
         style="fill:#ffffff;fill-opacity:0.3;stroke:none;stroke-width:0.793485;stroke-linecap:round;stroke-linejoin:round;paint-order:fill markers stroke"
         id="rect29835"
         width="4.1057658"
         height="1.5400615"
         x="0.044732075"
         y="3.4922972"
         ry="0" /></g></g></svg>
