<?xml version="1.0" encoding="UTF-8" standalone="no"?>
<svg
   xmlns:dc="http://purl.org/dc/elements/1.1/"
   xmlns:cc="http://creativecommons.org/ns#"
   xmlns:rdf="http://www.w3.org/1999/02/22-rdf-syntax-ns#"
   xmlns:svg="http://www.w3.org/2000/svg"
   xmlns="http://www.w3.org/2000/svg"
   xmlns:sodipodi="http://sodipodi.sourceforge.net/DTD/sodipodi-0.dtd"
   xmlns:inkscape="http://www.inkscape.org/namespaces/inkscape"
   version="1.1"
   id="Capa_1"
   x="0px"
   y="0px"
   viewBox="0 0 202.978 202.978"
   style="enable-background:new 0 0 202.978 202.978;"
   xml:space="preserve"
   sodipodi:docname="manual.svg"
   inkscape:version="1.0.2-2 (e86c870879, 2021-01-15)"><metadata
   id="metadata47"><rdf:RDF><cc:Work
       rdf:about=""><dc:format>image/svg+xml</dc:format><dc:type
         rdf:resource="http://purl.org/dc/dcmitype/StillImage" /><dc:title></dc:title></cc:Work></rdf:RDF></metadata><defs
   id="defs45" /><sodipodi:namedview
   pagecolor="#ffffff"
   bordercolor="#666666"
   borderopacity="1"
   objecttolerance="10"
   gridtolerance="10"
   guidetolerance="10"
   inkscape:pageopacity="0"
   inkscape:pageshadow="2"
   inkscape:window-width="640"
   inkscape:window-height="480"
   id="namedview43"
   showgrid="false"
   inkscape:pagecheckerboard="true"
   inkscape:zoom="1.7557658"
   inkscape:cx="24.964707"
   inkscape:cy="132.08037"
   inkscape:current-layer="Capa_1" />

<g
   id="g12">
</g>
<g
   id="g14">
</g>
<g
   id="g16">
</g>
<g
   id="g18">
</g>
<g
   id="g20">
</g>
<g
   id="g22">
</g>
<g
   id="g24">
</g>
<g
   id="g26">
</g>
<g
   id="g28">
</g>
<g
   id="g30">
</g>
<g
   id="g32">
</g>
<g
   id="g34">
</g>
<g
   id="g36">
</g>
<g
   id="g38">
</g>
<g
   id="g40">
</g>
<g
   id="g15"
   transform="matrix(1.7380699,0,0,1.7380699,-0.69731866,47.029185)"><path
     fill="#218099"
     d="M 4.833,50.083 C 5.539,48.433 19.5,16.25 20.166,14.583 20.833,12.916 19.499,12.166 18.916,13.75 18.333,15.333 1.833,51.5 0.916,53.583 0,55.667 0,57.083 3.583,57.083 c 3.583,0 49.417,0 49.417,0 V 60 h 11.667 v -3.167 c 0,0 48.333,0 50.083,0 1.75,0 3.333,-0.333 1.833,-3.5 -1.5,-3.167 -17,-37.417 -17.75,-39.25 -0.75,-1.833 -2.166,-1.083 -1.583,0.334 0.583,1.417 15,34.333 15.583,35.917 0.583,1.583 1.333,4.083 -5.417,4.083 -9.083,0 -25,-6.333 -31.917,-6.333 -6.917,0 -13.413,4.083 -16.706,8.416 -3.293,-3.083 -7.46,-8.417 -16.377,-8.417 -8.917,0 -20.25,6.25 -31.833,6.25 -4.333,0 -7.398,-0.397 -5.75,-4.25 z"
     id="path2-8"
     style="fill:#ffffff" /><path
     fill="#218099"
     d="M 107.75,45.75 C 106.417,42.167 93.333,7.833 93.333,7.833 c 0,0 -1.25,0.417 -3.833,0.417 -8.417,0 -17.917,-5.583 -21.667,-5.583 -3.917,0 -9.04,4.333 -9.04,4.333 0,0 -5.96,-4.333 -8.793,-4.333 -5.25,0 -12.083,5.5 -22.333,5.5 -2.25,0 -3.583,-0.333 -3.583,-0.333 0,0 -13.917,36.833 -14.917,39.333 -1,2.5 -1.001,4.167 2.75,4.167 9,0 25.25,-8.167 30.333,-8.167 9.333,0 16.543,10.5 16.543,10.5 0,0 7.957,-10.417 16.457,-10.417 8.5,0 20,8.25 30.583,8.25 3.25,0 3.25,-2.167 1.917,-5.75 z M 56.5,45 c 0,0 -4.5,-5.5 -13.333,-5.5 -9.167,0 -22.833,8 -26.667,8 -2.167,0 -3.417,-0.5 -2.5,-3.583 0.917,-3.083 11.917,-32.5 11.917,-32.5 0,0 1.585,0.167 3.833,0.167 10.25,0 14,-4.75 20,-4.75 4.083,0 6.25,2.333 6.75,4 z m 44.74,2.5 c -3.833,0 -17.5,-8 -26.667,-8 C 65.74,39.5 61.24,45 61.24,45 V 10.833 c 0.5,-1.667 2.667,-4 6.75,-4 6,0 9.75,4.75 20,4.75 2.248,0 3.833,-0.167 3.833,-0.167 0,0 11,29.417 11.917,32.5 0.917,3.084 -0.333,3.584 -2.5,3.584 z"
     id="path4"
     style="fill:#ffffff" /></g></svg>
