<?xml version="1.0" encoding="UTF-8" standalone="no"?>
<!-- Generator: Adobe Illustrator 19.0.0, SVG Export Plug-In . SVG Version: 6.00 Build 0)  -->

<svg
   version="1.1"
   id="Capa_1"
   x="0px"
   y="0px"
   viewBox="0 0 489.3 489.3"
   style="enable-background:new 0 0 489.3 489.3;"
   xml:space="preserve"
   sodipodi:docname="network.svg"
   inkscape:version="1.2 (dc2aedaf03, 2022-05-15)"
   xmlns:inkscape="http://www.inkscape.org/namespaces/inkscape"
   xmlns:sodipodi="http://sodipodi.sourceforge.net/DTD/sodipodi-0.dtd"
   xmlns="http://www.w3.org/2000/svg"
   xmlns:svg="http://www.w3.org/2000/svg"><defs
   id="defs172363" /><sodipodi:namedview
   id="namedview172361"
   pagecolor="#505050"
   bordercolor="#eeeeee"
   borderopacity="1"
   inkscape:showpageshadow="0"
   inkscape:pageopacity="0"
   inkscape:pagecheckerboard="0"
   inkscape:deskcolor="#505050"
   showgrid="false"
   inkscape:zoom="2.0989169"
   inkscape:cx="244.41178"
   inkscape:cy="244.41178"
   inkscape:current-layer="Capa_1" />
<g
   id="g172328"
   style="fill:#ffffff">
	<g
   id="g172326"
   style="fill:#ffffff">
		<path
   d="M79.55,229.675c-10.2,10.2-10.2,26.8,0,37.1c10.2,10.2,26.8,10.2,37.1,0c70.6-70.6,185.5-70.6,256.1,0    c5.1,5.1,11.8,7.7,18.5,7.7s13.4-2.6,18.5-7.7c10.2-10.2,10.2-26.8,0-37.1C318.75,138.575,170.55,138.575,79.55,229.675z"
   id="path172318"
   style="fill:#ffffff" />
		<path
   d="M150.35,300.475c-10.2,10.2-10.2,26.8,0,37.1c10.2,10.2,26.8,10.2,37.1,0c31.5-31.6,82.9-31.6,114.4,0    c5.1,5.1,11.8,7.7,18.5,7.7s13.4-2.6,18.5-7.7c10.2-10.2,10.2-26.8,0-37C286.95,248.475,202.35,248.475,150.35,300.475z"
   id="path172320"
   style="fill:#ffffff" />
		<circle
   cx="244.65"
   cy="394.675"
   r="34.9"
   id="circle172322"
   style="fill:#ffffff" />
		<path
   d="M481.65,157.675c-130.7-130.6-343.3-130.6-474,0c-10.2,10.2-10.2,26.8,0,37.1c10.2,10.2,26.8,10.2,37.1,0    c110.2-110.3,289.6-110.3,399.9,0c5.1,5.1,11.8,7.7,18.5,7.7s13.4-2.6,18.5-7.7C491.85,184.575,491.85,167.975,481.65,157.675z"
   id="path172324"
   style="fill:#ffffff" />
	</g>
</g>
<g
   id="g172330">
</g>
<g
   id="g172332">
</g>
<g
   id="g172334">
</g>
<g
   id="g172336">
</g>
<g
   id="g172338">
</g>
<g
   id="g172340">
</g>
<g
   id="g172342">
</g>
<g
   id="g172344">
</g>
<g
   id="g172346">
</g>
<g
   id="g172348">
</g>
<g
   id="g172350">
</g>
<g
   id="g172352">
</g>
<g
   id="g172354">
</g>
<g
   id="g172356">
</g>
<g
   id="g172358">
</g>
</svg>
