<?xml version="1.0" encoding="UTF-8" standalone="no"?>
<!-- Created with Inkscape (http://www.inkscape.org/) -->

<svg
   width="1920"
   height="1080"
   viewBox="0 0 507.99999 285.75"
   version="1.1"
   id="svg4587"
   inkscape:version="1.2 (dc2aedaf03, 2022-05-15)"
   sodipodi:docname="logo.svg"
   xml:space="preserve"
   xmlns:inkscape="http://www.inkscape.org/namespaces/inkscape"
   xmlns:sodipodi="http://sodipodi.sourceforge.net/DTD/sodipodi-0.dtd"
   xmlns="http://www.w3.org/2000/svg"
   xmlns:svg="http://www.w3.org/2000/svg"><sodipodi:namedview
     id="namedview4589"
     pagecolor="#505050"
     bordercolor="#eeeeee"
     borderopacity="1"
     inkscape:showpageshadow="0"
     inkscape:pageopacity="0"
     inkscape:pagecheckerboard="0"
     inkscape:deskcolor="#505050"
     inkscape:document-units="px"
     showgrid="false"
     showguides="false"
     inkscape:zoom="0.70710681"
     inkscape:cx="1443.912"
     inkscape:cy="417.19298"
     inkscape:current-layer="layer1"><sodipodi:guide
       position="383.22161,71.437499"
       orientation="0,1"
       id="guide5817"
       inkscape:locked="false"
       inkscape:label=""
       inkscape:color="rgb(0,134,229)" /><sodipodi:guide
       position="181.26439,23.953059"
       orientation="0,-1"
       id="guide20381"
       inkscape:locked="false" /><sodipodi:guide
       position="176.89049,19.860286"
       orientation="1,0"
       id="guide20383"
       inkscape:locked="false" /><sodipodi:guide
       position="507.43091,6.6145833"
       orientation="0,1"
       id="guide20385"
       inkscape:locked="false"
       inkscape:label=""
       inkscape:color="rgb(0,134,229)" /><sodipodi:guide
       position="331.39442,20.69312"
       orientation="1,0"
       id="guide20387"
       inkscape:locked="false" /></sodipodi:namedview><defs
     id="defs4584" /><g
     inkscape:label="Layer 1"
     inkscape:groupmode="layer"
     id="layer1"><path
       style="color:#000000;fill:#ffffff;fill-opacity:0.971616;stroke:#ffffff;stroke-width:0.79375;stroke-linecap:square;stroke-dasharray:none;stroke-opacity:1;paint-order:fill markers stroke"
       d="m 176.88864,276.44562 c 0,0 -0.0387,6.74191 3.9e-4,6.76445 l 154.54782,-0.003 c 0.004,-2.71573 0.004,-4.04876 0.004,-6.76449 z m 4.42191,0.18724 h 145.3789 c 1.63228,0 2.84961,1.14684 2.84961,2.5 0,1.35315 -1.21733,2.49804 -2.84961,2.49804 h -145.3789 c -1.63228,0 -2.84961,-1.14489 -2.84961,-2.49804 0,-1.35316 1.21733,-2.5 2.84961,-2.5 z"
       id="path20765"
       sodipodi:nodetypes="cccccsssssss" /><path
       id="path20767"
       style="color:#000000;fill:#050505;fill-opacity:1;stroke:none;stroke-linecap:square;stroke-opacity:0.6;paint-order:fill markers stroke"
       d="m 181.31055,276.50739 c -1.69425,0 -2.98243,1.20032 -2.98243,2.63282 0,1.43249 1.28829,2.63086 2.98243,2.63086 h 145.3789 c 1.69414,0 2.98242,-1.19837 2.98242,-2.63086 0,-1.4325 -1.28817,-2.63282 -2.98242,-2.63282 z M -2.629331e-5,275.83407 508.00002,275.82733 c 0,0 -0.26409,9.46525 0,9.92267 H -2.629331e-5 Z"
       sodipodi:nodetypes="sssssssccccc" /></g></svg>
