<?xml version="1.0" encoding="UTF-8" standalone="no"?>
<!-- Created with Inkscape (http://www.inkscape.org/) -->

<svg
   width="1920"
   height="1080"
   viewBox="0 0 507.99999 285.75"
   version="1.1"
   id="svg4587"
   inkscape:version="1.2 (dc2aedaf03, 2022-05-15)"
   sodipodi:docname="logo_hollow.svg"
   xmlns:inkscape="http://www.inkscape.org/namespaces/inkscape"
   xmlns:sodipodi="http://sodipodi.sourceforge.net/DTD/sodipodi-0.dtd"
   xmlns="http://www.w3.org/2000/svg"
   xmlns:svg="http://www.w3.org/2000/svg">
  <sodipodi:namedview
     id="namedview4589"
     pagecolor="#505050"
     bordercolor="#eeeeee"
     borderopacity="1"
     inkscape:showpageshadow="0"
     inkscape:pageopacity="0"
     inkscape:pagecheckerboard="0"
     inkscape:deskcolor="#505050"
     inkscape:document-units="px"
     showgrid="false"
     showguides="true"
     inkscape:zoom="2"
     inkscape:cx="1139.75"
     inkscape:cy="586.5"
     inkscape:current-layer="layer1">
    <sodipodi:guide
       position="383.22161,71.437499"
       orientation="0,1"
       id="guide5817"
       inkscape:locked="false"
       inkscape:label=""
       inkscape:color="rgb(0,134,229)" />
  </sodipodi:namedview>
  <defs
     id="defs4584" />
  <g
     inkscape:label="Layer 1"
     inkscape:groupmode="layer"
     id="layer1">
    <path
       id="path5278"
       style="font-size:22.5778px;line-height:1.25;font-family:'Agency FB';-inkscape-font-specification:'Agency FB';letter-spacing:-1.32292px;fill:#ffffff;stroke:#000000;stroke-width:0.793607;stroke-dasharray:none"
       d="m 186.65127,114.59133 v 56.42861 h 5.01186 v -22.39117 h 13.3049 c 1.17785,0 2.13937,-0.37256 2.88454,-1.11774 0.7692,-0.76919 1.15381,-1.74271 1.15381,-2.92059 V 118.5936 c 0,-1.17783 -0.38461,-2.13936 -1.15381,-2.88452 -0.74517,-0.74519 -1.70669,-1.11775 -2.88454,-1.11775 z m 118.64887,0.002 v 56.42712 h 16.02419 v -3.94217 h -11.56969 v -52.48493 z m -113.63701,4.43348 h 12.33138 v 25.1315 h -12.33138 z m 88.95774,1.7067 -8.93003,50.18481 v 0.12922 h 4.29525 l 2.10181,-13.27786 9.28758,-0.027 2.10331,13.3049 h 4.42294 l -8.88946,-50.31402 z m -68.02987,0.1262 V 171.019 h 4.45601 v -46.21734 h 11.44198 v 18.461 l -8.9045,-0.002 9.64216,27.7591 h 4.70989 v -0.002 c -2.86316,-8.03397 -5.73601,-16.04656 -8.62054,-24.03774 l 2.75532,-0.007 c 4.02964,0 4.87216,-0.89595 4.87216,-3.71835 v -18.8396 c -0.031,-2.55131 -0.81144,-3.55757 -3.55758,-3.55757 z m 24.16698,0.002 V 171.021 h 16.47337 v -3.94257 h -12.01888 v -9.34467 h 10.76892 v -4.00527 h -10.76892 v -28.92496 h 13.82172 l 8.00457,46.34481 h 4.19909 l 8.68514,-50.287 h -4.29525 l -6.41507,37.03469 -6.43611,-37.03469 h -3.09335 -1.3296 z m 59.56707,0 V 171.021 h 4.45598 v -50.15917 z m -13.58885,7.88439 3.99777,24.97973 -8.0241,-0.008 z" />
  </g>
</svg>
